G04 #@! TF.GenerationSoftware,KiCad,Pcbnew,(5.0.0)*
G04 #@! TF.CreationDate,2018-11-06T13:04:42+03:00*
G04 #@! TF.ProjectId,NeoP_6W,4E656F505F36572E6B696361645F7063,rev?*
G04 #@! TF.SameCoordinates,Original*
G04 #@! TF.FileFunction,Copper,L2,Bot,Signal*
G04 #@! TF.FilePolarity,Positive*
%FSLAX46Y46*%
G04 Gerber Fmt 4.6, Leading zero omitted, Abs format (unit mm)*
G04 Created by KiCad (PCBNEW (5.0.0)) date 11/06/18 13:04:42*
%MOMM*%
%LPD*%
G01*
G04 APERTURE LIST*
G04 #@! TA.AperFunction,ComponentPad*
%ADD10C,2.500000*%
G04 #@! TD*
G04 #@! TA.AperFunction,SMDPad,CuDef*
%ADD11R,1.200000X3.100000*%
G04 #@! TD*
G04 #@! TA.AperFunction,BGAPad,CuDef*
%ADD12C,5.500000*%
G04 #@! TD*
G04 #@! TA.AperFunction,ComponentPad*
%ADD13R,2.032000X1.727200*%
G04 #@! TD*
G04 #@! TA.AperFunction,ComponentPad*
%ADD14O,2.032000X1.727200*%
G04 #@! TD*
G04 #@! TA.AperFunction,ViaPad*
%ADD15C,0.700000*%
G04 #@! TD*
G04 #@! TA.AperFunction,ViaPad*
%ADD16C,0.900000*%
G04 #@! TD*
G04 #@! TA.AperFunction,Conductor*
%ADD17C,0.500000*%
G04 #@! TD*
G04 #@! TA.AperFunction,Conductor*
%ADD18C,0.300000*%
G04 #@! TD*
G04 #@! TA.AperFunction,Conductor*
%ADD19C,0.254000*%
G04 #@! TD*
G04 APERTURE END LIST*
D10*
G04 #@! TO.P,J?,*
G04 #@! TO.N,GND*
X114300000Y-100584000D03*
G04 #@! TD*
D11*
G04 #@! TO.P,D1,4*
G04 #@! TO.N,+5V*
X112600000Y-83315000D03*
G04 #@! TO.P,D1,5*
X114300000Y-83315000D03*
G04 #@! TO.P,D1,6*
X116000000Y-83315000D03*
D12*
G04 #@! TO.P,D1,*
X114300000Y-89535000D03*
D11*
G04 #@! TO.P,D1,1*
G04 #@! TO.N,Net-(D1-Pad1)*
X116000000Y-95755000D03*
G04 #@! TO.P,D1,2*
G04 #@! TO.N,Net-(D1-Pad2)*
X114300000Y-95755000D03*
G04 #@! TO.P,D1,3*
G04 #@! TO.N,Net-(D1-Pad3)*
X112600000Y-95755000D03*
G04 #@! TD*
D13*
G04 #@! TO.P,J1,1*
G04 #@! TO.N,TC*
X121666000Y-84455000D03*
D14*
G04 #@! TO.P,J1,2*
G04 #@! TO.N,B*
X121666000Y-86995000D03*
G04 #@! TO.P,J1,3*
G04 #@! TO.N,G*
X121666000Y-89535000D03*
G04 #@! TO.P,J1,4*
G04 #@! TO.N,R*
X121666000Y-92075000D03*
G04 #@! TO.P,J1,5*
G04 #@! TO.N,GND*
X121666000Y-94615000D03*
G04 #@! TO.P,J1,6*
G04 #@! TO.N,+5V*
X121666000Y-97155000D03*
G04 #@! TD*
D10*
G04 #@! TO.P,J?,*
G04 #@! TO.N,+5V*
X114300000Y-78359000D03*
G04 #@! TD*
D15*
G04 #@! TO.N,GND*
X108712000Y-83836000D03*
X111252000Y-95901000D03*
X117348000Y-95901000D03*
X119888000Y-83693000D03*
X109855000Y-83836000D03*
X119634000Y-87455500D03*
X119380000Y-91329000D03*
X121920000Y-81280000D03*
X119380000Y-78740000D03*
X118110000Y-100330000D03*
G04 #@! TO.N,+5V*
X110998000Y-81169000D03*
D16*
G04 #@! TO.N,Net-(D1-Pad2)*
X109347000Y-90694000D03*
G04 #@! TO.N,Net-(D1-Pad3)*
X109363000Y-94742000D03*
G04 #@! TO.N,Net-(D1-Pad1)*
X109347000Y-86630000D03*
G04 #@! TD*
D17*
G04 #@! TO.N,+5V*
X114300000Y-82315000D02*
X114300000Y-88535000D01*
X114300000Y-88535000D02*
X114300000Y-88908000D01*
X116000000Y-82315000D02*
X114300000Y-82315000D01*
X114300000Y-82315000D02*
X112600000Y-82315000D01*
X114300000Y-78359000D02*
X114300000Y-83315000D01*
X112282000Y-81997000D02*
X112600000Y-82315000D01*
D18*
X111760000Y-81169000D02*
X112282000Y-81691000D01*
X110998000Y-81169000D02*
X111760000Y-81169000D01*
X112282000Y-82997000D02*
X112600000Y-83315000D01*
X112282000Y-81691000D02*
X112282000Y-82997000D01*
D17*
X114300000Y-89789000D02*
X121666000Y-97155000D01*
X114300000Y-89535000D02*
X114300000Y-89789000D01*
G04 #@! TO.N,Net-(D1-Pad2)*
X109347000Y-90694000D02*
X109347000Y-92329000D01*
X109347000Y-92329000D02*
X110672999Y-93654999D01*
X114101999Y-93654999D02*
X114300000Y-93853000D01*
X110672999Y-93654999D02*
X114101999Y-93654999D01*
X114300000Y-94755000D02*
X114300000Y-93853000D01*
G04 #@! TO.N,Net-(D1-Pad3)*
X112587000Y-94742000D02*
X112600000Y-94755000D01*
X109363000Y-94742000D02*
X112587000Y-94742000D01*
G04 #@! TO.N,Net-(D1-Pad1)*
X116000000Y-95755000D02*
X116000000Y-96696000D01*
X109347000Y-86630000D02*
X109347000Y-88916000D01*
X116000000Y-95755000D02*
X116000000Y-94029000D01*
X116000000Y-94029000D02*
X114825989Y-92854989D01*
X114825989Y-92854989D02*
X111004373Y-92854989D01*
X110363000Y-92213616D02*
X110363000Y-89932000D01*
X111004373Y-92854989D02*
X110363000Y-92213616D01*
X109347000Y-88916000D02*
X110363000Y-89932000D01*
G04 #@! TD*
D19*
G04 #@! TO.N,GND*
G36*
X110339291Y-80728865D02*
X110221000Y-81014445D01*
X110221000Y-81323555D01*
X110339291Y-81609135D01*
X110557865Y-81827709D01*
X110571000Y-81833150D01*
X110571000Y-86852768D01*
X110445085Y-88615578D01*
X110446925Y-88695891D01*
X110495273Y-89106852D01*
X110024000Y-88635579D01*
X110024000Y-87193264D01*
X110090484Y-87126780D01*
X110224000Y-86804446D01*
X110224000Y-86455554D01*
X110090484Y-86133220D01*
X109843780Y-85886516D01*
X109521446Y-85753000D01*
X109172554Y-85753000D01*
X108850220Y-85886516D01*
X108603516Y-86133220D01*
X108470000Y-86455554D01*
X108470000Y-86804446D01*
X108603516Y-87126780D01*
X108670000Y-87193264D01*
X108670001Y-88849319D01*
X108656737Y-88916000D01*
X108703538Y-89151281D01*
X108709281Y-89180152D01*
X108858911Y-89404090D01*
X108915441Y-89441862D01*
X109290579Y-89817000D01*
X109172554Y-89817000D01*
X108850220Y-89950516D01*
X108603516Y-90197220D01*
X108470000Y-90519554D01*
X108470000Y-90868446D01*
X108603516Y-91190780D01*
X108670000Y-91257264D01*
X108670001Y-92262319D01*
X108656737Y-92329000D01*
X108689241Y-92492406D01*
X108709281Y-92593152D01*
X108858911Y-92817090D01*
X108915441Y-92854862D01*
X110125578Y-94065000D01*
X109926264Y-94065000D01*
X109859780Y-93998516D01*
X109537446Y-93865000D01*
X109188554Y-93865000D01*
X108866220Y-93998516D01*
X108619516Y-94245220D01*
X108486000Y-94567554D01*
X108486000Y-94916446D01*
X108619516Y-95238780D01*
X108866220Y-95485484D01*
X109188554Y-95619000D01*
X109537446Y-95619000D01*
X109859780Y-95485484D01*
X109926264Y-95419000D01*
X111564635Y-95419000D01*
X111564635Y-97305000D01*
X111597775Y-97471607D01*
X111692150Y-97612850D01*
X111833393Y-97707225D01*
X112000000Y-97740365D01*
X113200000Y-97740365D01*
X113366607Y-97707225D01*
X113450000Y-97651504D01*
X113533393Y-97707225D01*
X113700000Y-97740365D01*
X114900000Y-97740365D01*
X115066607Y-97707225D01*
X115150000Y-97651504D01*
X115233393Y-97707225D01*
X115400000Y-97740365D01*
X116600000Y-97740365D01*
X116766607Y-97707225D01*
X116907850Y-97612850D01*
X117002225Y-97471607D01*
X117035365Y-97305000D01*
X117035365Y-94205000D01*
X117002225Y-94038393D01*
X116907850Y-93897150D01*
X116766607Y-93802775D01*
X116640265Y-93777644D01*
X116637720Y-93764848D01*
X116488090Y-93540910D01*
X116431563Y-93503140D01*
X115684422Y-92756000D01*
X116309579Y-92756000D01*
X120282474Y-96728896D01*
X120197716Y-97155000D01*
X120297882Y-97658567D01*
X120583130Y-98085470D01*
X121010033Y-98370718D01*
X121386489Y-98445600D01*
X121945511Y-98445600D01*
X122321967Y-98370718D01*
X122688001Y-98126142D01*
X122688001Y-99765876D01*
X122247109Y-99897731D01*
X122185264Y-99926308D01*
X122123070Y-99954128D01*
X122117903Y-99957433D01*
X121664659Y-100251211D01*
X121613311Y-100296005D01*
X121561434Y-100340155D01*
X121557402Y-100344777D01*
X121204830Y-100753957D01*
X121168139Y-100811329D01*
X121130718Y-100868297D01*
X121128146Y-100873865D01*
X120904589Y-101365553D01*
X120885471Y-101430931D01*
X120865547Y-101496098D01*
X120864641Y-101502164D01*
X120849770Y-101606000D01*
X115550119Y-101606000D01*
X115754129Y-101483506D01*
X115987666Y-100858564D01*
X115964271Y-100191822D01*
X115754129Y-99684494D01*
X115519806Y-99543799D01*
X114479605Y-100584000D01*
X114493748Y-100598143D01*
X114314143Y-100777748D01*
X114300000Y-100763605D01*
X114285858Y-100777748D01*
X114106253Y-100598143D01*
X114120395Y-100584000D01*
X114106253Y-100569858D01*
X114285858Y-100390253D01*
X114300000Y-100404395D01*
X115340201Y-99364194D01*
X115199506Y-99129871D01*
X114574564Y-98896334D01*
X113907822Y-98919729D01*
X113400494Y-99129871D01*
X113259800Y-99364192D01*
X113182514Y-99286906D01*
X113137166Y-99332254D01*
X113116060Y-99281298D01*
X113116059Y-99281297D01*
X112895821Y-98951689D01*
X112895819Y-98951684D01*
X112826567Y-98882433D01*
X112757316Y-98813181D01*
X112757311Y-98813179D01*
X112427703Y-98592941D01*
X112427702Y-98592940D01*
X112352746Y-98561893D01*
X112246743Y-98517984D01*
X112246741Y-98517984D01*
X111857935Y-98440646D01*
X111857933Y-98440646D01*
X111809439Y-98431000D01*
X108631349Y-98431000D01*
X108357350Y-98379970D01*
X108160224Y-98258461D01*
X108020061Y-98074136D01*
X107945986Y-97818338D01*
X107943905Y-97775785D01*
X107817337Y-81322010D01*
X107870594Y-81019976D01*
X108002610Y-80791318D01*
X108204873Y-80621599D01*
X108474055Y-80523624D01*
X108606920Y-80512000D01*
X110556156Y-80512000D01*
X110339291Y-80728865D01*
X110339291Y-80728865D01*
G37*
X110339291Y-80728865D02*
X110221000Y-81014445D01*
X110221000Y-81323555D01*
X110339291Y-81609135D01*
X110557865Y-81827709D01*
X110571000Y-81833150D01*
X110571000Y-86852768D01*
X110445085Y-88615578D01*
X110446925Y-88695891D01*
X110495273Y-89106852D01*
X110024000Y-88635579D01*
X110024000Y-87193264D01*
X110090484Y-87126780D01*
X110224000Y-86804446D01*
X110224000Y-86455554D01*
X110090484Y-86133220D01*
X109843780Y-85886516D01*
X109521446Y-85753000D01*
X109172554Y-85753000D01*
X108850220Y-85886516D01*
X108603516Y-86133220D01*
X108470000Y-86455554D01*
X108470000Y-86804446D01*
X108603516Y-87126780D01*
X108670000Y-87193264D01*
X108670001Y-88849319D01*
X108656737Y-88916000D01*
X108703538Y-89151281D01*
X108709281Y-89180152D01*
X108858911Y-89404090D01*
X108915441Y-89441862D01*
X109290579Y-89817000D01*
X109172554Y-89817000D01*
X108850220Y-89950516D01*
X108603516Y-90197220D01*
X108470000Y-90519554D01*
X108470000Y-90868446D01*
X108603516Y-91190780D01*
X108670000Y-91257264D01*
X108670001Y-92262319D01*
X108656737Y-92329000D01*
X108689241Y-92492406D01*
X108709281Y-92593152D01*
X108858911Y-92817090D01*
X108915441Y-92854862D01*
X110125578Y-94065000D01*
X109926264Y-94065000D01*
X109859780Y-93998516D01*
X109537446Y-93865000D01*
X109188554Y-93865000D01*
X108866220Y-93998516D01*
X108619516Y-94245220D01*
X108486000Y-94567554D01*
X108486000Y-94916446D01*
X108619516Y-95238780D01*
X108866220Y-95485484D01*
X109188554Y-95619000D01*
X109537446Y-95619000D01*
X109859780Y-95485484D01*
X109926264Y-95419000D01*
X111564635Y-95419000D01*
X111564635Y-97305000D01*
X111597775Y-97471607D01*
X111692150Y-97612850D01*
X111833393Y-97707225D01*
X112000000Y-97740365D01*
X113200000Y-97740365D01*
X113366607Y-97707225D01*
X113450000Y-97651504D01*
X113533393Y-97707225D01*
X113700000Y-97740365D01*
X114900000Y-97740365D01*
X115066607Y-97707225D01*
X115150000Y-97651504D01*
X115233393Y-97707225D01*
X115400000Y-97740365D01*
X116600000Y-97740365D01*
X116766607Y-97707225D01*
X116907850Y-97612850D01*
X117002225Y-97471607D01*
X117035365Y-97305000D01*
X117035365Y-94205000D01*
X117002225Y-94038393D01*
X116907850Y-93897150D01*
X116766607Y-93802775D01*
X116640265Y-93777644D01*
X116637720Y-93764848D01*
X116488090Y-93540910D01*
X116431563Y-93503140D01*
X115684422Y-92756000D01*
X116309579Y-92756000D01*
X120282474Y-96728896D01*
X120197716Y-97155000D01*
X120297882Y-97658567D01*
X120583130Y-98085470D01*
X121010033Y-98370718D01*
X121386489Y-98445600D01*
X121945511Y-98445600D01*
X122321967Y-98370718D01*
X122688001Y-98126142D01*
X122688001Y-99765876D01*
X122247109Y-99897731D01*
X122185264Y-99926308D01*
X122123070Y-99954128D01*
X122117903Y-99957433D01*
X121664659Y-100251211D01*
X121613311Y-100296005D01*
X121561434Y-100340155D01*
X121557402Y-100344777D01*
X121204830Y-100753957D01*
X121168139Y-100811329D01*
X121130718Y-100868297D01*
X121128146Y-100873865D01*
X120904589Y-101365553D01*
X120885471Y-101430931D01*
X120865547Y-101496098D01*
X120864641Y-101502164D01*
X120849770Y-101606000D01*
X115550119Y-101606000D01*
X115754129Y-101483506D01*
X115987666Y-100858564D01*
X115964271Y-100191822D01*
X115754129Y-99684494D01*
X115519806Y-99543799D01*
X114479605Y-100584000D01*
X114493748Y-100598143D01*
X114314143Y-100777748D01*
X114300000Y-100763605D01*
X114285858Y-100777748D01*
X114106253Y-100598143D01*
X114120395Y-100584000D01*
X114106253Y-100569858D01*
X114285858Y-100390253D01*
X114300000Y-100404395D01*
X115340201Y-99364194D01*
X115199506Y-99129871D01*
X114574564Y-98896334D01*
X113907822Y-98919729D01*
X113400494Y-99129871D01*
X113259800Y-99364192D01*
X113182514Y-99286906D01*
X113137166Y-99332254D01*
X113116060Y-99281298D01*
X113116059Y-99281297D01*
X112895821Y-98951689D01*
X112895819Y-98951684D01*
X112826567Y-98882433D01*
X112757316Y-98813181D01*
X112757311Y-98813179D01*
X112427703Y-98592941D01*
X112427702Y-98592940D01*
X112352746Y-98561893D01*
X112246743Y-98517984D01*
X112246741Y-98517984D01*
X111857935Y-98440646D01*
X111857933Y-98440646D01*
X111809439Y-98431000D01*
X108631349Y-98431000D01*
X108357350Y-98379970D01*
X108160224Y-98258461D01*
X108020061Y-98074136D01*
X107945986Y-97818338D01*
X107943905Y-97775785D01*
X107817337Y-81322010D01*
X107870594Y-81019976D01*
X108002610Y-80791318D01*
X108204873Y-80621599D01*
X108474055Y-80523624D01*
X108606920Y-80512000D01*
X110556156Y-80512000D01*
X110339291Y-80728865D01*
G36*
X120979731Y-77777891D02*
X121008307Y-77839735D01*
X121036128Y-77901931D01*
X121039431Y-77907094D01*
X121039433Y-77907098D01*
X121039436Y-77907101D01*
X121333211Y-78360342D01*
X121378003Y-78411688D01*
X121422155Y-78463566D01*
X121426777Y-78467598D01*
X121835956Y-78820169D01*
X121893318Y-78856854D01*
X121950297Y-78894282D01*
X121955865Y-78896854D01*
X122447553Y-79120411D01*
X122512921Y-79139526D01*
X122578098Y-79159453D01*
X122584164Y-79160359D01*
X122688000Y-79175230D01*
X122688000Y-83157229D01*
X122682000Y-83156035D01*
X120650000Y-83156035D01*
X120483393Y-83189175D01*
X120342150Y-83283550D01*
X120247775Y-83424793D01*
X120214635Y-83591400D01*
X120214635Y-85318600D01*
X120247775Y-85485207D01*
X120342150Y-85626450D01*
X120483393Y-85720825D01*
X120650000Y-85753965D01*
X121137310Y-85753965D01*
X121010033Y-85779282D01*
X120583130Y-86064530D01*
X120297882Y-86491433D01*
X120197716Y-86995000D01*
X120297882Y-87498567D01*
X120583130Y-87925470D01*
X121010033Y-88210718D01*
X121282926Y-88265000D01*
X121010033Y-88319282D01*
X120583130Y-88604530D01*
X120297882Y-89031433D01*
X120197716Y-89535000D01*
X120297882Y-90038567D01*
X120583130Y-90465470D01*
X121010033Y-90750718D01*
X121282926Y-90805000D01*
X121010033Y-90859282D01*
X120583130Y-91144530D01*
X120297882Y-91571433D01*
X120197716Y-92075000D01*
X120297882Y-92578567D01*
X120583130Y-93005470D01*
X121010033Y-93290718D01*
X121298860Y-93348169D01*
X120860269Y-93500248D01*
X120483404Y-93835122D01*
X120264943Y-94288649D01*
X120336582Y-94488000D01*
X121539000Y-94488000D01*
X121539000Y-94468000D01*
X121793000Y-94468000D01*
X121793000Y-94488000D01*
X121813000Y-94488000D01*
X121813000Y-94742000D01*
X121793000Y-94742000D01*
X121793000Y-94762000D01*
X121539000Y-94762000D01*
X121539000Y-94742000D01*
X120336582Y-94742000D01*
X120303230Y-94834808D01*
X118122820Y-92654398D01*
X118157935Y-92630935D01*
X118250497Y-92492406D01*
X118283000Y-92329000D01*
X118283000Y-81788000D01*
X118250497Y-81624594D01*
X118157935Y-81486065D01*
X118019406Y-81393503D01*
X117856000Y-81361000D01*
X116757683Y-81361000D01*
X116600000Y-81329635D01*
X115400000Y-81329635D01*
X115242317Y-81361000D01*
X115057683Y-81361000D01*
X114977000Y-81344951D01*
X114977000Y-79893749D01*
X115249944Y-79780692D01*
X115721692Y-79308944D01*
X115977000Y-78692576D01*
X115977000Y-78025424D01*
X115721692Y-77409056D01*
X115649636Y-77337000D01*
X120847877Y-77337000D01*
X120979731Y-77777891D01*
X120979731Y-77777891D01*
G37*
X120979731Y-77777891D02*
X121008307Y-77839735D01*
X121036128Y-77901931D01*
X121039431Y-77907094D01*
X121039433Y-77907098D01*
X121039436Y-77907101D01*
X121333211Y-78360342D01*
X121378003Y-78411688D01*
X121422155Y-78463566D01*
X121426777Y-78467598D01*
X121835956Y-78820169D01*
X121893318Y-78856854D01*
X121950297Y-78894282D01*
X121955865Y-78896854D01*
X122447553Y-79120411D01*
X122512921Y-79139526D01*
X122578098Y-79159453D01*
X122584164Y-79160359D01*
X122688000Y-79175230D01*
X122688000Y-83157229D01*
X122682000Y-83156035D01*
X120650000Y-83156035D01*
X120483393Y-83189175D01*
X120342150Y-83283550D01*
X120247775Y-83424793D01*
X120214635Y-83591400D01*
X120214635Y-85318600D01*
X120247775Y-85485207D01*
X120342150Y-85626450D01*
X120483393Y-85720825D01*
X120650000Y-85753965D01*
X121137310Y-85753965D01*
X121010033Y-85779282D01*
X120583130Y-86064530D01*
X120297882Y-86491433D01*
X120197716Y-86995000D01*
X120297882Y-87498567D01*
X120583130Y-87925470D01*
X121010033Y-88210718D01*
X121282926Y-88265000D01*
X121010033Y-88319282D01*
X120583130Y-88604530D01*
X120297882Y-89031433D01*
X120197716Y-89535000D01*
X120297882Y-90038567D01*
X120583130Y-90465470D01*
X121010033Y-90750718D01*
X121282926Y-90805000D01*
X121010033Y-90859282D01*
X120583130Y-91144530D01*
X120297882Y-91571433D01*
X120197716Y-92075000D01*
X120297882Y-92578567D01*
X120583130Y-93005470D01*
X121010033Y-93290718D01*
X121298860Y-93348169D01*
X120860269Y-93500248D01*
X120483404Y-93835122D01*
X120264943Y-94288649D01*
X120336582Y-94488000D01*
X121539000Y-94488000D01*
X121539000Y-94468000D01*
X121793000Y-94468000D01*
X121793000Y-94488000D01*
X121813000Y-94488000D01*
X121813000Y-94742000D01*
X121793000Y-94742000D01*
X121793000Y-94762000D01*
X121539000Y-94762000D01*
X121539000Y-94742000D01*
X120336582Y-94742000D01*
X120303230Y-94834808D01*
X118122820Y-92654398D01*
X118157935Y-92630935D01*
X118250497Y-92492406D01*
X118283000Y-92329000D01*
X118283000Y-81788000D01*
X118250497Y-81624594D01*
X118157935Y-81486065D01*
X118019406Y-81393503D01*
X117856000Y-81361000D01*
X116757683Y-81361000D01*
X116600000Y-81329635D01*
X115400000Y-81329635D01*
X115242317Y-81361000D01*
X115057683Y-81361000D01*
X114977000Y-81344951D01*
X114977000Y-79893749D01*
X115249944Y-79780692D01*
X115721692Y-79308944D01*
X115977000Y-78692576D01*
X115977000Y-78025424D01*
X115721692Y-77409056D01*
X115649636Y-77337000D01*
X120847877Y-77337000D01*
X120979731Y-77777891D01*
G04 #@! TO.N,+5V*
G36*
X111573000Y-83081250D02*
X111679750Y-83188000D01*
X112473000Y-83188000D01*
X112473000Y-83168000D01*
X112727000Y-83168000D01*
X112727000Y-83188000D01*
X114173000Y-83188000D01*
X114173000Y-83168000D01*
X114427000Y-83168000D01*
X114427000Y-83188000D01*
X115873000Y-83188000D01*
X115873000Y-83168000D01*
X116127000Y-83168000D01*
X116127000Y-83188000D01*
X116920250Y-83188000D01*
X117027000Y-83081250D01*
X117027000Y-81915000D01*
X117729000Y-81915000D01*
X117729000Y-92202000D01*
X116121523Y-92202000D01*
X116423382Y-91837987D01*
X114300000Y-89714605D01*
X112176618Y-91837987D01*
X112458565Y-92177989D01*
X111834662Y-92177989D01*
X111249056Y-90772535D01*
X111199543Y-90351678D01*
X111606574Y-91334483D01*
X111606765Y-91334768D01*
X111997013Y-91658382D01*
X114120395Y-89535000D01*
X114479605Y-89535000D01*
X116602987Y-91658382D01*
X116993235Y-91334768D01*
X117476966Y-90167113D01*
X117477034Y-88903224D01*
X116993426Y-87735517D01*
X116993235Y-87735232D01*
X116602987Y-87411618D01*
X114479605Y-89535000D01*
X114120395Y-89535000D01*
X111997013Y-87411618D01*
X111606765Y-87735232D01*
X111123034Y-88902887D01*
X111122991Y-89700982D01*
X110998532Y-88643078D01*
X111099322Y-87232013D01*
X112176618Y-87232013D01*
X114300000Y-89355395D01*
X116423382Y-87232013D01*
X116099768Y-86841765D01*
X114932113Y-86358034D01*
X113668224Y-86357966D01*
X112500517Y-86841574D01*
X112500232Y-86841765D01*
X112176618Y-87232013D01*
X111099322Y-87232013D01*
X111124677Y-86877048D01*
X111125000Y-86868000D01*
X111125000Y-83548750D01*
X111573000Y-83548750D01*
X111573000Y-84949935D01*
X111638007Y-85106876D01*
X111758124Y-85226993D01*
X111915064Y-85292000D01*
X112366250Y-85292000D01*
X112473000Y-85185250D01*
X112473000Y-83442000D01*
X112727000Y-83442000D01*
X112727000Y-85185250D01*
X112833750Y-85292000D01*
X113284936Y-85292000D01*
X113441876Y-85226993D01*
X113450000Y-85218869D01*
X113458124Y-85226993D01*
X113615064Y-85292000D01*
X114066250Y-85292000D01*
X114173000Y-85185250D01*
X114173000Y-83442000D01*
X114427000Y-83442000D01*
X114427000Y-85185250D01*
X114533750Y-85292000D01*
X114984936Y-85292000D01*
X115141876Y-85226993D01*
X115150000Y-85218869D01*
X115158124Y-85226993D01*
X115315064Y-85292000D01*
X115766250Y-85292000D01*
X115873000Y-85185250D01*
X115873000Y-83442000D01*
X116127000Y-83442000D01*
X116127000Y-85185250D01*
X116233750Y-85292000D01*
X116684936Y-85292000D01*
X116841876Y-85226993D01*
X116961993Y-85106876D01*
X117027000Y-84949935D01*
X117027000Y-83548750D01*
X116920250Y-83442000D01*
X116127000Y-83442000D01*
X115873000Y-83442000D01*
X114427000Y-83442000D01*
X114173000Y-83442000D01*
X112727000Y-83442000D01*
X112473000Y-83442000D01*
X111679750Y-83442000D01*
X111573000Y-83548750D01*
X111125000Y-83548750D01*
X111125000Y-81915000D01*
X111573000Y-81915000D01*
X111573000Y-83081250D01*
X111573000Y-83081250D01*
G37*
X111573000Y-83081250D02*
X111679750Y-83188000D01*
X112473000Y-83188000D01*
X112473000Y-83168000D01*
X112727000Y-83168000D01*
X112727000Y-83188000D01*
X114173000Y-83188000D01*
X114173000Y-83168000D01*
X114427000Y-83168000D01*
X114427000Y-83188000D01*
X115873000Y-83188000D01*
X115873000Y-83168000D01*
X116127000Y-83168000D01*
X116127000Y-83188000D01*
X116920250Y-83188000D01*
X117027000Y-83081250D01*
X117027000Y-81915000D01*
X117729000Y-81915000D01*
X117729000Y-92202000D01*
X116121523Y-92202000D01*
X116423382Y-91837987D01*
X114300000Y-89714605D01*
X112176618Y-91837987D01*
X112458565Y-92177989D01*
X111834662Y-92177989D01*
X111249056Y-90772535D01*
X111199543Y-90351678D01*
X111606574Y-91334483D01*
X111606765Y-91334768D01*
X111997013Y-91658382D01*
X114120395Y-89535000D01*
X114479605Y-89535000D01*
X116602987Y-91658382D01*
X116993235Y-91334768D01*
X117476966Y-90167113D01*
X117477034Y-88903224D01*
X116993426Y-87735517D01*
X116993235Y-87735232D01*
X116602987Y-87411618D01*
X114479605Y-89535000D01*
X114120395Y-89535000D01*
X111997013Y-87411618D01*
X111606765Y-87735232D01*
X111123034Y-88902887D01*
X111122991Y-89700982D01*
X110998532Y-88643078D01*
X111099322Y-87232013D01*
X112176618Y-87232013D01*
X114300000Y-89355395D01*
X116423382Y-87232013D01*
X116099768Y-86841765D01*
X114932113Y-86358034D01*
X113668224Y-86357966D01*
X112500517Y-86841574D01*
X112500232Y-86841765D01*
X112176618Y-87232013D01*
X111099322Y-87232013D01*
X111124677Y-86877048D01*
X111125000Y-86868000D01*
X111125000Y-83548750D01*
X111573000Y-83548750D01*
X111573000Y-84949935D01*
X111638007Y-85106876D01*
X111758124Y-85226993D01*
X111915064Y-85292000D01*
X112366250Y-85292000D01*
X112473000Y-85185250D01*
X112473000Y-83442000D01*
X112727000Y-83442000D01*
X112727000Y-85185250D01*
X112833750Y-85292000D01*
X113284936Y-85292000D01*
X113441876Y-85226993D01*
X113450000Y-85218869D01*
X113458124Y-85226993D01*
X113615064Y-85292000D01*
X114066250Y-85292000D01*
X114173000Y-85185250D01*
X114173000Y-83442000D01*
X114427000Y-83442000D01*
X114427000Y-85185250D01*
X114533750Y-85292000D01*
X114984936Y-85292000D01*
X115141876Y-85226993D01*
X115150000Y-85218869D01*
X115158124Y-85226993D01*
X115315064Y-85292000D01*
X115766250Y-85292000D01*
X115873000Y-85185250D01*
X115873000Y-83442000D01*
X116127000Y-83442000D01*
X116127000Y-85185250D01*
X116233750Y-85292000D01*
X116684936Y-85292000D01*
X116841876Y-85226993D01*
X116961993Y-85106876D01*
X117027000Y-84949935D01*
X117027000Y-83548750D01*
X116920250Y-83442000D01*
X116127000Y-83442000D01*
X115873000Y-83442000D01*
X114427000Y-83442000D01*
X114173000Y-83442000D01*
X112727000Y-83442000D01*
X112473000Y-83442000D01*
X111679750Y-83442000D01*
X111573000Y-83548750D01*
X111125000Y-83548750D01*
X111125000Y-81915000D01*
X111573000Y-81915000D01*
X111573000Y-83081250D01*
G04 #@! TD*
M02*
