M48
;DRILL file {KiCad (5.0.0)} date 11/06/18 13:04:50
;FORMAT={-:-/ absolute / metric / decimal}
FMAT,2
METRIC,TZ
T1C0.300
T2C0.500
T3C1.016
T4C1.500
%
G90
G05
M71
T1
X108.712Y-83.836
X109.855Y-83.836
X110.998Y-81.169
X111.252Y-95.901
X117.348Y-95.901
X118.11Y-100.33
X119.38Y-78.74
X119.38Y-91.329
X119.634Y-87.456
X119.888Y-83.693
X121.92Y-81.28
T2
X109.347Y-86.63
X109.347Y-90.694
X109.363Y-94.742
T3
X121.666Y-84.455
X121.666Y-86.995
X121.666Y-89.535
X121.666Y-92.075
X121.666Y-94.615
X121.666Y-97.155
T4
X114.3Y-78.359
X114.3Y-100.584
T0
M30
