G04 #@! TF.GenerationSoftware,KiCad,Pcbnew,(5.0.0)*
G04 #@! TF.CreationDate,2018-11-06T13:04:42+03:00*
G04 #@! TF.ProjectId,NeoP_6W,4E656F505F36572E6B696361645F7063,rev?*
G04 #@! TF.SameCoordinates,Original*
G04 #@! TF.FileFunction,Profile,NP*
%FSLAX46Y46*%
G04 Gerber Fmt 4.6, Leading zero omitted, Abs format (unit mm)*
G04 Created by KiCad (PCBNEW (5.0.0)) date 11/06/18 13:04:42*
%MOMM*%
%LPD*%
G01*
G04 APERTURE LIST*
%ADD10C,0.150000*%
G04 APERTURE END LIST*
D10*
X121285000Y-102108000D02*
X119761000Y-102108000D01*
X121285000Y-102108000D02*
G75*
G02X123190000Y-100203000I1905000J0D01*
G01*
X123190000Y-78740000D02*
X123190000Y-100203000D01*
X119761000Y-76835000D02*
X121285000Y-76835000D01*
X123190000Y-78740000D02*
G75*
G02X121285000Y-76835000I0J1905000D01*
G01*
X111760000Y-98933000D02*
X109220000Y-98933000D01*
X112776000Y-99949000D02*
X112776000Y-100584000D01*
X111760000Y-98933000D02*
G75*
G02X112776000Y-99949000I0J-1016000D01*
G01*
X111760000Y-80010000D02*
X109220000Y-80010000D01*
X112776000Y-78359000D02*
X112776000Y-78994000D01*
X112776000Y-78994000D02*
G75*
G02X111760000Y-80010000I-1016000J0D01*
G01*
X114300000Y-76835000D02*
X119761000Y-76835000D01*
X107442000Y-97790000D02*
X107315000Y-81280000D01*
X108585000Y-98933000D02*
G75*
G02X107442000Y-97790000I0J1143000D01*
G01*
X109220000Y-98933000D02*
X108585000Y-98933000D01*
X107315000Y-81280000D02*
G75*
G02X108585000Y-80010000I1270000J0D01*
G01*
X109220000Y-80010000D02*
X108585000Y-80010000D01*
X112776000Y-78359000D02*
G75*
G02X114300000Y-76835000I1524000J0D01*
G01*
X114300000Y-102108000D02*
X119253000Y-102108000D01*
X114300000Y-102108000D02*
G75*
G02X112776000Y-100584000I0J1524000D01*
G01*
X119761000Y-102108000D02*
X119253000Y-102108000D01*
M02*
