G04 #@! TF.GenerationSoftware,KiCad,Pcbnew,(5.0.0)*
G04 #@! TF.CreationDate,2018-11-06T13:04:42+03:00*
G04 #@! TF.ProjectId,NeoP_6W,4E656F505F36572E6B696361645F7063,rev?*
G04 #@! TF.SameCoordinates,Original*
G04 #@! TF.FileFunction,Soldermask,Top*
G04 #@! TF.FilePolarity,Negative*
%FSLAX46Y46*%
G04 Gerber Fmt 4.6, Leading zero omitted, Abs format (unit mm)*
G04 Created by KiCad (PCBNEW (5.0.0)) date 11/06/18 13:04:42*
%MOMM*%
%LPD*%
G01*
G04 APERTURE LIST*
%ADD10C,0.100000*%
G04 APERTURE END LIST*
D10*
G36*
X114722947Y-99189722D02*
X114986833Y-99299027D01*
X115224324Y-99457713D01*
X115426287Y-99659676D01*
X115584973Y-99897167D01*
X115694278Y-100161053D01*
X115750000Y-100441186D01*
X115750000Y-100726814D01*
X115694278Y-101006947D01*
X115584973Y-101270833D01*
X115426287Y-101508324D01*
X115224324Y-101710287D01*
X114986833Y-101868973D01*
X114722947Y-101978278D01*
X114442814Y-102034000D01*
X114157186Y-102034000D01*
X113877053Y-101978278D01*
X113613167Y-101868973D01*
X113375676Y-101710287D01*
X113173713Y-101508324D01*
X113015027Y-101270833D01*
X112905722Y-101006947D01*
X112850000Y-100726814D01*
X112850000Y-100441186D01*
X112905722Y-100161053D01*
X113015027Y-99897167D01*
X113173713Y-99659676D01*
X113375676Y-99457713D01*
X113613167Y-99299027D01*
X113877053Y-99189722D01*
X114157186Y-99134000D01*
X114442814Y-99134000D01*
X114722947Y-99189722D01*
X114722947Y-99189722D01*
G37*
G36*
X122026903Y-96106789D02*
X122227391Y-96167607D01*
X122412164Y-96266369D01*
X122574118Y-96399282D01*
X122707031Y-96561236D01*
X122805793Y-96746009D01*
X122866611Y-96946497D01*
X122887146Y-97155000D01*
X122866611Y-97363503D01*
X122805793Y-97563991D01*
X122707031Y-97748764D01*
X122574118Y-97910718D01*
X122412164Y-98043631D01*
X122227391Y-98142393D01*
X122026903Y-98203211D01*
X121870651Y-98218600D01*
X121461349Y-98218600D01*
X121305097Y-98203211D01*
X121104609Y-98142393D01*
X120919836Y-98043631D01*
X120757882Y-97910718D01*
X120624969Y-97748764D01*
X120526207Y-97563991D01*
X120465389Y-97363503D01*
X120444854Y-97155000D01*
X120465389Y-96946497D01*
X120526207Y-96746009D01*
X120624969Y-96561236D01*
X120757882Y-96399282D01*
X120919836Y-96266369D01*
X121104609Y-96167607D01*
X121305097Y-96106789D01*
X121461349Y-96091400D01*
X121870651Y-96091400D01*
X122026903Y-96106789D01*
X122026903Y-96106789D01*
G37*
G36*
X122026903Y-93566789D02*
X122227391Y-93627607D01*
X122412164Y-93726369D01*
X122574118Y-93859282D01*
X122707031Y-94021236D01*
X122805793Y-94206009D01*
X122866611Y-94406497D01*
X122887146Y-94615000D01*
X122866611Y-94823503D01*
X122805793Y-95023991D01*
X122707031Y-95208764D01*
X122574118Y-95370718D01*
X122412164Y-95503631D01*
X122227391Y-95602393D01*
X122026903Y-95663211D01*
X121870651Y-95678600D01*
X121461349Y-95678600D01*
X121305097Y-95663211D01*
X121104609Y-95602393D01*
X120919836Y-95503631D01*
X120757882Y-95370718D01*
X120624969Y-95208764D01*
X120526207Y-95023991D01*
X120465389Y-94823503D01*
X120444854Y-94615000D01*
X120465389Y-94406497D01*
X120526207Y-94206009D01*
X120624969Y-94021236D01*
X120757882Y-93859282D01*
X120919836Y-93726369D01*
X121104609Y-93627607D01*
X121305097Y-93566789D01*
X121461349Y-93551400D01*
X121870651Y-93551400D01*
X122026903Y-93566789D01*
X122026903Y-93566789D01*
G37*
G36*
X119060530Y-91958710D02*
X119110379Y-91973831D01*
X119156311Y-91998382D01*
X119196574Y-92031426D01*
X119229618Y-92071689D01*
X119254169Y-92117621D01*
X119269290Y-92167470D01*
X119275000Y-92225444D01*
X119275000Y-93480556D01*
X119269290Y-93538530D01*
X119254169Y-93588379D01*
X119229618Y-93634311D01*
X119196574Y-93674574D01*
X119156311Y-93707618D01*
X119110379Y-93732169D01*
X119060530Y-93747290D01*
X119002556Y-93753000D01*
X118730040Y-93753000D01*
X118705654Y-93755402D01*
X118682205Y-93762515D01*
X118660594Y-93774066D01*
X118641652Y-93789612D01*
X118626106Y-93808554D01*
X118614555Y-93830165D01*
X118607442Y-93853614D01*
X118605040Y-93878000D01*
X118607442Y-93902386D01*
X118614555Y-93925835D01*
X118626106Y-93947446D01*
X118641652Y-93966388D01*
X118671115Y-93988240D01*
X118698444Y-94002848D01*
X118740027Y-94036973D01*
X118774154Y-94078558D01*
X118799507Y-94125990D01*
X118815123Y-94177470D01*
X118821000Y-94237140D01*
X118821000Y-95024860D01*
X118815123Y-95084530D01*
X118799507Y-95136010D01*
X118774154Y-95183442D01*
X118740027Y-95225027D01*
X118698442Y-95259154D01*
X118651010Y-95284507D01*
X118599530Y-95300123D01*
X118539860Y-95306000D01*
X117652140Y-95306000D01*
X117592470Y-95300123D01*
X117540990Y-95284507D01*
X117493558Y-95259154D01*
X117451973Y-95225027D01*
X117417846Y-95183442D01*
X117392493Y-95136010D01*
X117376877Y-95084530D01*
X117371000Y-95024860D01*
X117371000Y-94237140D01*
X117376877Y-94177470D01*
X117392493Y-94125990D01*
X117417846Y-94078558D01*
X117451973Y-94036973D01*
X117493558Y-94002846D01*
X117540990Y-93977493D01*
X117592470Y-93961877D01*
X117652140Y-93956000D01*
X117809353Y-93956000D01*
X117833739Y-93953598D01*
X117857188Y-93946485D01*
X117878799Y-93934934D01*
X117897741Y-93919388D01*
X117913287Y-93900446D01*
X117924838Y-93878835D01*
X117931951Y-93855386D01*
X117934353Y-93831000D01*
X117931951Y-93806614D01*
X117924838Y-93783165D01*
X117913287Y-93761554D01*
X117897741Y-93742612D01*
X117878799Y-93727066D01*
X117868277Y-93720759D01*
X117843686Y-93707615D01*
X117803426Y-93674574D01*
X117770382Y-93634311D01*
X117745831Y-93588379D01*
X117730710Y-93538530D01*
X117725000Y-93480556D01*
X117725000Y-92225444D01*
X117730710Y-92167470D01*
X117745831Y-92117621D01*
X117770382Y-92071689D01*
X117803426Y-92031426D01*
X117843689Y-91998382D01*
X117889621Y-91973831D01*
X117939470Y-91958710D01*
X117997444Y-91953000D01*
X119002556Y-91953000D01*
X119060530Y-91958710D01*
X119060530Y-91958710D01*
G37*
G36*
X117010530Y-91958710D02*
X117060379Y-91973831D01*
X117106311Y-91998382D01*
X117146574Y-92031426D01*
X117179618Y-92071689D01*
X117204169Y-92117621D01*
X117219290Y-92167470D01*
X117225000Y-92225444D01*
X117225000Y-93480556D01*
X117219290Y-93538530D01*
X117204169Y-93588379D01*
X117179618Y-93634311D01*
X117146574Y-93674574D01*
X117106311Y-93707618D01*
X117060379Y-93732169D01*
X117010530Y-93747290D01*
X116964466Y-93751827D01*
X116940433Y-93756608D01*
X116917794Y-93765985D01*
X116897419Y-93779599D01*
X116880092Y-93796926D01*
X116866479Y-93817301D01*
X116857101Y-93839940D01*
X116852321Y-93863973D01*
X116852321Y-93888478D01*
X116857102Y-93912511D01*
X116866479Y-93935150D01*
X116880093Y-93955525D01*
X116897420Y-93972852D01*
X116917794Y-93986465D01*
X116948444Y-94002848D01*
X116990027Y-94036973D01*
X117024154Y-94078558D01*
X117049507Y-94125990D01*
X117065123Y-94177470D01*
X117071000Y-94237140D01*
X117071000Y-95024860D01*
X117065123Y-95084530D01*
X117049507Y-95136010D01*
X117024154Y-95183442D01*
X116990027Y-95225027D01*
X116948442Y-95259154D01*
X116901010Y-95284507D01*
X116849530Y-95300123D01*
X116789860Y-95306000D01*
X115902140Y-95306000D01*
X115842470Y-95300123D01*
X115790990Y-95284507D01*
X115743558Y-95259154D01*
X115701973Y-95225027D01*
X115667846Y-95183442D01*
X115642493Y-95136010D01*
X115626877Y-95084530D01*
X115621000Y-95024860D01*
X115621000Y-94340000D01*
X115618598Y-94315614D01*
X115611485Y-94292165D01*
X115599934Y-94270554D01*
X115584388Y-94251612D01*
X115565446Y-94236066D01*
X115543835Y-94224515D01*
X115520386Y-94217402D01*
X115496000Y-94215000D01*
X114142000Y-94215000D01*
X114142000Y-93594291D01*
X115442000Y-93594291D01*
X115442000Y-94004400D01*
X115444402Y-94028786D01*
X115451515Y-94052235D01*
X115463066Y-94073846D01*
X115478612Y-94092788D01*
X115497554Y-94108334D01*
X115519165Y-94119885D01*
X115542614Y-94126998D01*
X115567000Y-94129400D01*
X115591386Y-94126998D01*
X115614835Y-94119885D01*
X115636446Y-94108334D01*
X115655388Y-94092788D01*
X115663627Y-94083699D01*
X115701973Y-94036973D01*
X115743558Y-94002846D01*
X115790990Y-93977493D01*
X115826031Y-93966864D01*
X115848670Y-93957487D01*
X115869044Y-93943873D01*
X115886372Y-93926546D01*
X115899986Y-93906171D01*
X115909363Y-93883532D01*
X115914144Y-93859499D01*
X115914144Y-93834995D01*
X115909364Y-93810961D01*
X115899987Y-93788322D01*
X115886373Y-93767948D01*
X115869046Y-93750620D01*
X115848671Y-93737006D01*
X115793688Y-93707617D01*
X115753426Y-93674574D01*
X115720382Y-93634311D01*
X115695831Y-93588379D01*
X115686618Y-93558006D01*
X115677241Y-93535367D01*
X115663627Y-93514993D01*
X115646300Y-93497665D01*
X115625925Y-93484051D01*
X115603287Y-93474674D01*
X115579253Y-93469893D01*
X115554749Y-93469893D01*
X115530715Y-93474673D01*
X115508076Y-93484050D01*
X115487702Y-93497664D01*
X115470374Y-93514991D01*
X115456760Y-93535366D01*
X115447383Y-93558004D01*
X115442602Y-93582038D01*
X115442000Y-93594291D01*
X114142000Y-93594291D01*
X114142000Y-93015000D01*
X115550000Y-93015000D01*
X115574386Y-93012598D01*
X115597835Y-93005485D01*
X115619446Y-92993934D01*
X115638388Y-92978388D01*
X115653934Y-92959446D01*
X115665485Y-92937835D01*
X115672598Y-92914386D01*
X115675000Y-92890000D01*
X115675000Y-92225444D01*
X115680710Y-92167470D01*
X115695831Y-92117621D01*
X115720382Y-92071689D01*
X115753426Y-92031426D01*
X115793689Y-91998382D01*
X115839621Y-91973831D01*
X115889470Y-91958710D01*
X115947444Y-91953000D01*
X116952556Y-91953000D01*
X117010530Y-91958710D01*
X117010530Y-91958710D01*
G37*
G36*
X113442000Y-95165000D02*
X110713000Y-95165000D01*
X110713000Y-93965000D01*
X113442000Y-93965000D01*
X113442000Y-95165000D01*
X113442000Y-95165000D01*
G37*
G36*
X110013000Y-94215000D02*
X108713000Y-94215000D01*
X108713000Y-93015000D01*
X110013000Y-93015000D01*
X110013000Y-94215000D01*
X110013000Y-94215000D01*
G37*
G36*
X113442000Y-93265000D02*
X110713000Y-93265000D01*
X110713000Y-92065000D01*
X113442000Y-92065000D01*
X113442000Y-93265000D01*
X113442000Y-93265000D01*
G37*
G36*
X122026903Y-91026789D02*
X122227391Y-91087607D01*
X122412164Y-91186369D01*
X122574118Y-91319282D01*
X122707031Y-91481236D01*
X122805793Y-91666009D01*
X122866611Y-91866497D01*
X122887146Y-92075000D01*
X122866611Y-92283503D01*
X122805793Y-92483991D01*
X122707031Y-92668764D01*
X122574118Y-92830718D01*
X122412164Y-92963631D01*
X122227391Y-93062393D01*
X122026903Y-93123211D01*
X121870651Y-93138600D01*
X121461349Y-93138600D01*
X121305097Y-93123211D01*
X121104609Y-93062393D01*
X120919836Y-92963631D01*
X120757882Y-92830718D01*
X120624969Y-92668764D01*
X120526207Y-92483991D01*
X120465389Y-92283503D01*
X120444854Y-92075000D01*
X120465389Y-91866497D01*
X120526207Y-91666009D01*
X120624969Y-91481236D01*
X120757882Y-91319282D01*
X120919836Y-91186369D01*
X121104609Y-91087607D01*
X121305097Y-91026789D01*
X121461349Y-91011400D01*
X121870651Y-91011400D01*
X122026903Y-91026789D01*
X122026903Y-91026789D01*
G37*
G36*
X117010530Y-87894710D02*
X117060379Y-87909831D01*
X117106311Y-87934382D01*
X117146574Y-87967426D01*
X117179618Y-88007689D01*
X117204169Y-88053621D01*
X117219290Y-88103470D01*
X117225000Y-88161444D01*
X117225000Y-89416556D01*
X117219290Y-89474530D01*
X117204169Y-89524379D01*
X117179618Y-89570311D01*
X117146574Y-89610574D01*
X117106311Y-89643618D01*
X117060379Y-89668169D01*
X117010530Y-89683290D01*
X116964466Y-89687827D01*
X116940433Y-89692608D01*
X116917794Y-89701985D01*
X116897419Y-89715599D01*
X116880092Y-89732926D01*
X116866479Y-89753301D01*
X116857101Y-89775940D01*
X116852321Y-89799973D01*
X116852321Y-89824478D01*
X116857102Y-89848511D01*
X116866479Y-89871150D01*
X116880093Y-89891525D01*
X116897420Y-89908852D01*
X116917794Y-89922465D01*
X116948444Y-89938848D01*
X116990027Y-89972973D01*
X117024154Y-90014558D01*
X117049507Y-90061990D01*
X117065123Y-90113470D01*
X117071000Y-90173140D01*
X117071000Y-90960860D01*
X117065123Y-91020530D01*
X117049507Y-91072010D01*
X117024154Y-91119442D01*
X116990027Y-91161027D01*
X116948442Y-91195154D01*
X116901010Y-91220507D01*
X116849530Y-91236123D01*
X116789860Y-91242000D01*
X115902140Y-91242000D01*
X115842470Y-91236123D01*
X115790990Y-91220507D01*
X115743558Y-91195154D01*
X115701973Y-91161027D01*
X115667846Y-91119442D01*
X115642493Y-91072010D01*
X115626877Y-91020530D01*
X115621000Y-90960860D01*
X115621000Y-90276000D01*
X115618598Y-90251614D01*
X115611485Y-90228165D01*
X115599934Y-90206554D01*
X115584388Y-90187612D01*
X115565446Y-90172066D01*
X115543835Y-90160515D01*
X115520386Y-90153402D01*
X115496000Y-90151000D01*
X114142000Y-90151000D01*
X114142000Y-89530291D01*
X115442000Y-89530291D01*
X115442000Y-89940400D01*
X115444402Y-89964786D01*
X115451515Y-89988235D01*
X115463066Y-90009846D01*
X115478612Y-90028788D01*
X115497554Y-90044334D01*
X115519165Y-90055885D01*
X115542614Y-90062998D01*
X115567000Y-90065400D01*
X115591386Y-90062998D01*
X115614835Y-90055885D01*
X115636446Y-90044334D01*
X115655388Y-90028788D01*
X115663627Y-90019699D01*
X115701973Y-89972973D01*
X115743558Y-89938846D01*
X115790990Y-89913493D01*
X115826031Y-89902864D01*
X115848670Y-89893487D01*
X115869044Y-89879873D01*
X115886372Y-89862546D01*
X115899986Y-89842171D01*
X115909363Y-89819532D01*
X115914144Y-89795499D01*
X115914144Y-89770995D01*
X115909364Y-89746961D01*
X115899987Y-89724322D01*
X115886373Y-89703948D01*
X115869046Y-89686620D01*
X115848671Y-89673006D01*
X115793688Y-89643617D01*
X115753426Y-89610574D01*
X115720382Y-89570311D01*
X115695831Y-89524379D01*
X115686618Y-89494006D01*
X115677241Y-89471367D01*
X115663627Y-89450993D01*
X115646300Y-89433665D01*
X115625925Y-89420051D01*
X115603287Y-89410674D01*
X115579253Y-89405893D01*
X115554749Y-89405893D01*
X115530715Y-89410673D01*
X115508076Y-89420050D01*
X115487702Y-89433664D01*
X115470374Y-89450991D01*
X115456760Y-89471366D01*
X115447383Y-89494004D01*
X115442602Y-89518038D01*
X115442000Y-89530291D01*
X114142000Y-89530291D01*
X114142000Y-88951000D01*
X115550000Y-88951000D01*
X115574386Y-88948598D01*
X115597835Y-88941485D01*
X115619446Y-88929934D01*
X115638388Y-88914388D01*
X115653934Y-88895446D01*
X115665485Y-88873835D01*
X115672598Y-88850386D01*
X115675000Y-88826000D01*
X115675000Y-88161444D01*
X115680710Y-88103470D01*
X115695831Y-88053621D01*
X115720382Y-88007689D01*
X115753426Y-87967426D01*
X115793689Y-87934382D01*
X115839621Y-87909831D01*
X115889470Y-87894710D01*
X115947444Y-87889000D01*
X116952556Y-87889000D01*
X117010530Y-87894710D01*
X117010530Y-87894710D01*
G37*
G36*
X119060530Y-87894710D02*
X119110379Y-87909831D01*
X119156311Y-87934382D01*
X119196574Y-87967426D01*
X119229618Y-88007689D01*
X119254169Y-88053621D01*
X119269290Y-88103470D01*
X119275000Y-88161444D01*
X119275000Y-89416556D01*
X119269290Y-89474530D01*
X119254169Y-89524379D01*
X119229618Y-89570311D01*
X119196574Y-89610574D01*
X119156311Y-89643618D01*
X119110379Y-89668169D01*
X119060530Y-89683290D01*
X119002556Y-89689000D01*
X118730040Y-89689000D01*
X118705654Y-89691402D01*
X118682205Y-89698515D01*
X118660594Y-89710066D01*
X118641652Y-89725612D01*
X118626106Y-89744554D01*
X118614555Y-89766165D01*
X118607442Y-89789614D01*
X118605040Y-89814000D01*
X118607442Y-89838386D01*
X118614555Y-89861835D01*
X118626106Y-89883446D01*
X118641652Y-89902388D01*
X118671115Y-89924240D01*
X118698444Y-89938848D01*
X118740027Y-89972973D01*
X118774154Y-90014558D01*
X118799507Y-90061990D01*
X118815123Y-90113470D01*
X118821000Y-90173140D01*
X118821000Y-90960860D01*
X118815123Y-91020530D01*
X118799507Y-91072010D01*
X118774154Y-91119442D01*
X118740027Y-91161027D01*
X118698442Y-91195154D01*
X118651010Y-91220507D01*
X118599530Y-91236123D01*
X118539860Y-91242000D01*
X117652140Y-91242000D01*
X117592470Y-91236123D01*
X117540990Y-91220507D01*
X117493558Y-91195154D01*
X117451973Y-91161027D01*
X117417846Y-91119442D01*
X117392493Y-91072010D01*
X117376877Y-91020530D01*
X117371000Y-90960860D01*
X117371000Y-90173140D01*
X117376877Y-90113470D01*
X117392493Y-90061990D01*
X117417846Y-90014558D01*
X117451973Y-89972973D01*
X117493558Y-89938846D01*
X117540990Y-89913493D01*
X117592470Y-89897877D01*
X117652140Y-89892000D01*
X117809353Y-89892000D01*
X117833739Y-89889598D01*
X117857188Y-89882485D01*
X117878799Y-89870934D01*
X117897741Y-89855388D01*
X117913287Y-89836446D01*
X117924838Y-89814835D01*
X117931951Y-89791386D01*
X117934353Y-89767000D01*
X117931951Y-89742614D01*
X117924838Y-89719165D01*
X117913287Y-89697554D01*
X117897741Y-89678612D01*
X117878799Y-89663066D01*
X117868277Y-89656759D01*
X117843686Y-89643615D01*
X117803426Y-89610574D01*
X117770382Y-89570311D01*
X117745831Y-89524379D01*
X117730710Y-89474530D01*
X117725000Y-89416556D01*
X117725000Y-88161444D01*
X117730710Y-88103470D01*
X117745831Y-88053621D01*
X117770382Y-88007689D01*
X117803426Y-87967426D01*
X117843689Y-87934382D01*
X117889621Y-87909831D01*
X117939470Y-87894710D01*
X117997444Y-87889000D01*
X119002556Y-87889000D01*
X119060530Y-87894710D01*
X119060530Y-87894710D01*
G37*
G36*
X113442000Y-91101000D02*
X110713000Y-91101000D01*
X110713000Y-89901000D01*
X113442000Y-89901000D01*
X113442000Y-91101000D01*
X113442000Y-91101000D01*
G37*
G36*
X122026903Y-88486789D02*
X122227391Y-88547607D01*
X122412164Y-88646369D01*
X122574118Y-88779282D01*
X122707031Y-88941236D01*
X122805793Y-89126009D01*
X122866611Y-89326497D01*
X122887146Y-89535000D01*
X122866611Y-89743503D01*
X122805793Y-89943991D01*
X122707031Y-90128764D01*
X122574118Y-90290718D01*
X122412164Y-90423631D01*
X122227391Y-90522393D01*
X122026903Y-90583211D01*
X121870651Y-90598600D01*
X121461349Y-90598600D01*
X121305097Y-90583211D01*
X121104609Y-90522393D01*
X120919836Y-90423631D01*
X120757882Y-90290718D01*
X120624969Y-90128764D01*
X120526207Y-89943991D01*
X120465389Y-89743503D01*
X120444854Y-89535000D01*
X120465389Y-89326497D01*
X120526207Y-89126009D01*
X120624969Y-88941236D01*
X120757882Y-88779282D01*
X120919836Y-88646369D01*
X121104609Y-88547607D01*
X121305097Y-88486789D01*
X121461349Y-88471400D01*
X121870651Y-88471400D01*
X122026903Y-88486789D01*
X122026903Y-88486789D01*
G37*
G36*
X110013000Y-90151000D02*
X108713000Y-90151000D01*
X108713000Y-88951000D01*
X110013000Y-88951000D01*
X110013000Y-90151000D01*
X110013000Y-90151000D01*
G37*
G36*
X113442000Y-89201000D02*
X110713000Y-89201000D01*
X110713000Y-88001000D01*
X113442000Y-88001000D01*
X113442000Y-89201000D01*
X113442000Y-89201000D01*
G37*
G36*
X122026903Y-85946789D02*
X122227391Y-86007607D01*
X122412164Y-86106369D01*
X122574118Y-86239282D01*
X122707031Y-86401236D01*
X122805793Y-86586009D01*
X122866611Y-86786497D01*
X122887146Y-86995000D01*
X122866611Y-87203503D01*
X122805793Y-87403991D01*
X122707031Y-87588764D01*
X122574118Y-87750718D01*
X122412164Y-87883631D01*
X122227391Y-87982393D01*
X122026903Y-88043211D01*
X121870651Y-88058600D01*
X121461349Y-88058600D01*
X121305097Y-88043211D01*
X121104609Y-87982393D01*
X120919836Y-87883631D01*
X120757882Y-87750718D01*
X120624969Y-87588764D01*
X120526207Y-87403991D01*
X120465389Y-87203503D01*
X120444854Y-86995000D01*
X120465389Y-86786497D01*
X120526207Y-86586009D01*
X120624969Y-86401236D01*
X120757882Y-86239282D01*
X120919836Y-86106369D01*
X121104609Y-86007607D01*
X121305097Y-85946789D01*
X121461349Y-85931400D01*
X121870651Y-85931400D01*
X122026903Y-85946789D01*
X122026903Y-85946789D01*
G37*
G36*
X119060530Y-83830710D02*
X119110379Y-83845831D01*
X119156311Y-83870382D01*
X119196574Y-83903426D01*
X119229618Y-83943689D01*
X119254169Y-83989621D01*
X119269290Y-84039470D01*
X119275000Y-84097444D01*
X119275000Y-85352556D01*
X119269290Y-85410530D01*
X119254169Y-85460379D01*
X119229618Y-85506311D01*
X119196574Y-85546574D01*
X119156311Y-85579618D01*
X119110379Y-85604169D01*
X119060530Y-85619290D01*
X119002556Y-85625000D01*
X118730040Y-85625000D01*
X118705654Y-85627402D01*
X118682205Y-85634515D01*
X118660594Y-85646066D01*
X118641652Y-85661612D01*
X118626106Y-85680554D01*
X118614555Y-85702165D01*
X118607442Y-85725614D01*
X118605040Y-85750000D01*
X118607442Y-85774386D01*
X118614555Y-85797835D01*
X118626106Y-85819446D01*
X118641652Y-85838388D01*
X118671115Y-85860240D01*
X118698444Y-85874848D01*
X118740027Y-85908973D01*
X118774154Y-85950558D01*
X118799507Y-85997990D01*
X118815123Y-86049470D01*
X118821000Y-86109140D01*
X118821000Y-86896860D01*
X118815123Y-86956530D01*
X118799507Y-87008010D01*
X118774154Y-87055442D01*
X118740027Y-87097027D01*
X118698442Y-87131154D01*
X118651010Y-87156507D01*
X118599530Y-87172123D01*
X118539860Y-87178000D01*
X117652140Y-87178000D01*
X117592470Y-87172123D01*
X117540990Y-87156507D01*
X117493558Y-87131154D01*
X117451973Y-87097027D01*
X117417846Y-87055442D01*
X117392493Y-87008010D01*
X117376877Y-86956530D01*
X117371000Y-86896860D01*
X117371000Y-86109140D01*
X117376877Y-86049470D01*
X117392493Y-85997990D01*
X117417846Y-85950558D01*
X117451973Y-85908973D01*
X117493558Y-85874846D01*
X117540990Y-85849493D01*
X117592470Y-85833877D01*
X117652140Y-85828000D01*
X117809353Y-85828000D01*
X117833739Y-85825598D01*
X117857188Y-85818485D01*
X117878799Y-85806934D01*
X117897741Y-85791388D01*
X117913287Y-85772446D01*
X117924838Y-85750835D01*
X117931951Y-85727386D01*
X117934353Y-85703000D01*
X117931951Y-85678614D01*
X117924838Y-85655165D01*
X117913287Y-85633554D01*
X117897741Y-85614612D01*
X117878799Y-85599066D01*
X117868277Y-85592759D01*
X117843686Y-85579615D01*
X117803426Y-85546574D01*
X117770382Y-85506311D01*
X117745831Y-85460379D01*
X117730710Y-85410530D01*
X117725000Y-85352556D01*
X117725000Y-84097444D01*
X117730710Y-84039470D01*
X117745831Y-83989621D01*
X117770382Y-83943689D01*
X117803426Y-83903426D01*
X117843689Y-83870382D01*
X117889621Y-83845831D01*
X117939470Y-83830710D01*
X117997444Y-83825000D01*
X119002556Y-83825000D01*
X119060530Y-83830710D01*
X119060530Y-83830710D01*
G37*
G36*
X117010530Y-83830710D02*
X117060379Y-83845831D01*
X117106311Y-83870382D01*
X117146574Y-83903426D01*
X117179618Y-83943689D01*
X117204169Y-83989621D01*
X117219290Y-84039470D01*
X117225000Y-84097444D01*
X117225000Y-85352556D01*
X117219290Y-85410530D01*
X117204169Y-85460379D01*
X117179618Y-85506311D01*
X117146574Y-85546574D01*
X117106311Y-85579618D01*
X117060379Y-85604169D01*
X117010530Y-85619290D01*
X116964466Y-85623827D01*
X116940433Y-85628608D01*
X116917794Y-85637985D01*
X116897419Y-85651599D01*
X116880092Y-85668926D01*
X116866479Y-85689301D01*
X116857101Y-85711940D01*
X116852321Y-85735973D01*
X116852321Y-85760478D01*
X116857102Y-85784511D01*
X116866479Y-85807150D01*
X116880093Y-85827525D01*
X116897420Y-85844852D01*
X116917794Y-85858465D01*
X116948444Y-85874848D01*
X116990027Y-85908973D01*
X117024154Y-85950558D01*
X117049507Y-85997990D01*
X117065123Y-86049470D01*
X117071000Y-86109140D01*
X117071000Y-86896860D01*
X117065123Y-86956530D01*
X117049507Y-87008010D01*
X117024154Y-87055442D01*
X116990027Y-87097027D01*
X116948442Y-87131154D01*
X116901010Y-87156507D01*
X116849530Y-87172123D01*
X116789860Y-87178000D01*
X115902140Y-87178000D01*
X115842470Y-87172123D01*
X115790990Y-87156507D01*
X115743558Y-87131154D01*
X115701973Y-87097027D01*
X115667846Y-87055442D01*
X115642493Y-87008010D01*
X115626877Y-86956530D01*
X115621000Y-86896860D01*
X115621000Y-86212000D01*
X115618598Y-86187614D01*
X115611485Y-86164165D01*
X115599934Y-86142554D01*
X115584388Y-86123612D01*
X115565446Y-86108066D01*
X115543835Y-86096515D01*
X115520386Y-86089402D01*
X115496000Y-86087000D01*
X114142000Y-86087000D01*
X114142000Y-85466291D01*
X115442000Y-85466291D01*
X115442000Y-85876400D01*
X115444402Y-85900786D01*
X115451515Y-85924235D01*
X115463066Y-85945846D01*
X115478612Y-85964788D01*
X115497554Y-85980334D01*
X115519165Y-85991885D01*
X115542614Y-85998998D01*
X115567000Y-86001400D01*
X115591386Y-85998998D01*
X115614835Y-85991885D01*
X115636446Y-85980334D01*
X115655388Y-85964788D01*
X115663627Y-85955699D01*
X115701973Y-85908973D01*
X115743558Y-85874846D01*
X115790990Y-85849493D01*
X115826031Y-85838864D01*
X115848670Y-85829487D01*
X115869044Y-85815873D01*
X115886372Y-85798546D01*
X115899986Y-85778171D01*
X115909363Y-85755532D01*
X115914144Y-85731499D01*
X115914144Y-85706995D01*
X115909364Y-85682961D01*
X115899987Y-85660322D01*
X115886373Y-85639948D01*
X115869046Y-85622620D01*
X115848671Y-85609006D01*
X115793688Y-85579617D01*
X115753426Y-85546574D01*
X115720382Y-85506311D01*
X115695831Y-85460379D01*
X115686618Y-85430006D01*
X115677241Y-85407367D01*
X115663627Y-85386993D01*
X115646300Y-85369665D01*
X115625925Y-85356051D01*
X115603287Y-85346674D01*
X115579253Y-85341893D01*
X115554749Y-85341893D01*
X115530715Y-85346673D01*
X115508076Y-85356050D01*
X115487702Y-85369664D01*
X115470374Y-85386991D01*
X115456760Y-85407366D01*
X115447383Y-85430004D01*
X115442602Y-85454038D01*
X115442000Y-85466291D01*
X114142000Y-85466291D01*
X114142000Y-84887000D01*
X115550000Y-84887000D01*
X115574386Y-84884598D01*
X115597835Y-84877485D01*
X115619446Y-84865934D01*
X115638388Y-84850388D01*
X115653934Y-84831446D01*
X115665485Y-84809835D01*
X115672598Y-84786386D01*
X115675000Y-84762000D01*
X115675000Y-84097444D01*
X115680710Y-84039470D01*
X115695831Y-83989621D01*
X115720382Y-83943689D01*
X115753426Y-83903426D01*
X115793689Y-83870382D01*
X115839621Y-83845831D01*
X115889470Y-83830710D01*
X115947444Y-83825000D01*
X116952556Y-83825000D01*
X117010530Y-83830710D01*
X117010530Y-83830710D01*
G37*
G36*
X113442000Y-87037000D02*
X110713000Y-87037000D01*
X110713000Y-85837000D01*
X113442000Y-85837000D01*
X113442000Y-87037000D01*
X113442000Y-87037000D01*
G37*
G36*
X110013000Y-86087000D02*
X108713000Y-86087000D01*
X108713000Y-84887000D01*
X110013000Y-84887000D01*
X110013000Y-86087000D01*
X110013000Y-86087000D01*
G37*
G36*
X122882000Y-85518600D02*
X120450000Y-85518600D01*
X120450000Y-83391400D01*
X122882000Y-83391400D01*
X122882000Y-85518600D01*
X122882000Y-85518600D01*
G37*
G36*
X113442000Y-85137000D02*
X110713000Y-85137000D01*
X110713000Y-83937000D01*
X113442000Y-83937000D01*
X113442000Y-85137000D01*
X113442000Y-85137000D01*
G37*
G36*
X119575378Y-81696308D02*
X119621302Y-81710239D01*
X119663615Y-81732855D01*
X119700705Y-81763295D01*
X119731145Y-81800385D01*
X119753761Y-81842698D01*
X119767692Y-81888622D01*
X119773000Y-81942511D01*
X119773000Y-83189489D01*
X119767692Y-83243378D01*
X119753761Y-83289302D01*
X119731145Y-83331615D01*
X119700705Y-83368705D01*
X119663615Y-83399145D01*
X119621302Y-83421761D01*
X119575378Y-83435692D01*
X119521489Y-83441000D01*
X118049511Y-83441000D01*
X117995622Y-83435692D01*
X117949698Y-83421761D01*
X117907385Y-83399145D01*
X117870295Y-83368705D01*
X117839855Y-83331615D01*
X117817239Y-83289302D01*
X117803308Y-83243378D01*
X117798000Y-83189489D01*
X117798000Y-81942511D01*
X117803308Y-81888622D01*
X117817239Y-81842698D01*
X117839855Y-81800385D01*
X117870295Y-81763295D01*
X117907385Y-81732855D01*
X117949698Y-81710239D01*
X117995622Y-81696308D01*
X118049511Y-81691000D01*
X119521489Y-81691000D01*
X119575378Y-81696308D01*
X119575378Y-81696308D01*
G37*
G36*
X116700378Y-81696308D02*
X116746302Y-81710239D01*
X116788615Y-81732855D01*
X116825705Y-81763295D01*
X116856145Y-81800385D01*
X116878761Y-81842698D01*
X116892692Y-81888622D01*
X116898000Y-81942511D01*
X116898000Y-83189489D01*
X116892692Y-83243378D01*
X116878761Y-83289302D01*
X116856145Y-83331615D01*
X116825705Y-83368705D01*
X116788615Y-83399145D01*
X116746302Y-83421761D01*
X116700378Y-83435692D01*
X116646489Y-83441000D01*
X115174511Y-83441000D01*
X115120622Y-83435692D01*
X115074698Y-83421761D01*
X115032385Y-83399145D01*
X114995295Y-83368705D01*
X114964855Y-83331615D01*
X114942239Y-83289302D01*
X114928308Y-83243378D01*
X114923000Y-83189489D01*
X114923000Y-81942511D01*
X114928308Y-81888622D01*
X114942239Y-81842698D01*
X114964855Y-81800385D01*
X114995295Y-81763295D01*
X115032385Y-81732855D01*
X115074698Y-81710239D01*
X115120622Y-81696308D01*
X115174511Y-81691000D01*
X116646489Y-81691000D01*
X116700378Y-81696308D01*
X116700378Y-81696308D01*
G37*
G36*
X110979530Y-81896877D02*
X111031010Y-81912493D01*
X111078442Y-81937846D01*
X111120027Y-81971973D01*
X111154154Y-82013558D01*
X111179507Y-82060990D01*
X111195882Y-82114972D01*
X111205260Y-82137611D01*
X111218874Y-82157986D01*
X111236201Y-82175313D01*
X111256575Y-82188927D01*
X111279214Y-82198305D01*
X111303248Y-82203085D01*
X111327752Y-82203085D01*
X111351785Y-82198305D01*
X111374424Y-82188927D01*
X111394799Y-82175313D01*
X111412126Y-82157986D01*
X111425740Y-82137612D01*
X111435118Y-82114972D01*
X111451493Y-82060990D01*
X111476846Y-82013558D01*
X111510973Y-81971973D01*
X111552558Y-81937846D01*
X111599990Y-81912493D01*
X111651470Y-81896877D01*
X111711140Y-81891000D01*
X112598860Y-81891000D01*
X112658530Y-81896877D01*
X112710010Y-81912493D01*
X112757442Y-81937846D01*
X112799027Y-81971973D01*
X112833154Y-82013558D01*
X112858507Y-82060990D01*
X112874123Y-82112470D01*
X112880000Y-82172140D01*
X112880000Y-82959860D01*
X112874123Y-83019530D01*
X112858507Y-83071010D01*
X112833154Y-83118442D01*
X112799027Y-83160027D01*
X112757442Y-83194154D01*
X112710010Y-83219507D01*
X112658530Y-83235123D01*
X112598860Y-83241000D01*
X111711140Y-83241000D01*
X111651470Y-83235123D01*
X111599990Y-83219507D01*
X111552558Y-83194154D01*
X111510973Y-83160027D01*
X111476846Y-83118442D01*
X111451493Y-83071010D01*
X111435118Y-83017028D01*
X111425740Y-82994389D01*
X111412126Y-82974014D01*
X111394799Y-82956687D01*
X111374425Y-82943073D01*
X111351786Y-82933695D01*
X111327752Y-82928915D01*
X111303248Y-82928915D01*
X111279215Y-82933695D01*
X111256576Y-82943073D01*
X111236201Y-82956687D01*
X111218874Y-82974014D01*
X111205260Y-82994388D01*
X111195882Y-83017028D01*
X111179507Y-83071010D01*
X111154154Y-83118442D01*
X111120027Y-83160027D01*
X111078442Y-83194154D01*
X111031010Y-83219507D01*
X110979530Y-83235123D01*
X110919860Y-83241000D01*
X110032140Y-83241000D01*
X109972470Y-83235123D01*
X109920990Y-83219507D01*
X109873558Y-83194154D01*
X109831973Y-83160027D01*
X109797846Y-83118442D01*
X109772493Y-83071010D01*
X109756877Y-83019530D01*
X109751000Y-82959860D01*
X109751000Y-82172140D01*
X109756877Y-82112470D01*
X109772493Y-82060990D01*
X109797846Y-82013558D01*
X109831973Y-81971973D01*
X109873558Y-81937846D01*
X109920990Y-81912493D01*
X109972470Y-81896877D01*
X110032140Y-81891000D01*
X110919860Y-81891000D01*
X110979530Y-81896877D01*
X110979530Y-81896877D01*
G37*
G36*
X114408530Y-81896877D02*
X114460010Y-81912493D01*
X114507442Y-81937846D01*
X114549027Y-81971973D01*
X114583154Y-82013558D01*
X114608507Y-82060990D01*
X114624123Y-82112470D01*
X114630000Y-82172140D01*
X114630000Y-82959860D01*
X114624123Y-83019530D01*
X114608507Y-83071010D01*
X114583154Y-83118442D01*
X114549027Y-83160027D01*
X114507442Y-83194154D01*
X114460010Y-83219507D01*
X114408530Y-83235123D01*
X114348860Y-83241000D01*
X113461140Y-83241000D01*
X113401470Y-83235123D01*
X113349990Y-83219507D01*
X113302558Y-83194154D01*
X113260973Y-83160027D01*
X113226846Y-83118442D01*
X113201493Y-83071010D01*
X113185877Y-83019530D01*
X113180000Y-82959860D01*
X113180000Y-82172140D01*
X113185877Y-82112470D01*
X113201493Y-82060990D01*
X113226846Y-82013558D01*
X113260973Y-81971973D01*
X113302558Y-81937846D01*
X113349990Y-81912493D01*
X113401470Y-81896877D01*
X113461140Y-81891000D01*
X114348860Y-81891000D01*
X114408530Y-81896877D01*
X114408530Y-81896877D01*
G37*
G36*
X109229530Y-81896877D02*
X109281010Y-81912493D01*
X109328442Y-81937846D01*
X109370027Y-81971973D01*
X109404154Y-82013558D01*
X109429507Y-82060990D01*
X109445123Y-82112470D01*
X109451000Y-82172140D01*
X109451000Y-82959860D01*
X109445123Y-83019530D01*
X109429507Y-83071010D01*
X109404154Y-83118442D01*
X109370027Y-83160027D01*
X109328442Y-83194154D01*
X109281010Y-83219507D01*
X109229530Y-83235123D01*
X109169860Y-83241000D01*
X108282140Y-83241000D01*
X108222470Y-83235123D01*
X108170990Y-83219507D01*
X108123558Y-83194154D01*
X108081973Y-83160027D01*
X108047846Y-83118442D01*
X108022493Y-83071010D01*
X108006877Y-83019530D01*
X108001000Y-82959860D01*
X108001000Y-82172140D01*
X108006877Y-82112470D01*
X108022493Y-82060990D01*
X108047846Y-82013558D01*
X108081973Y-81971973D01*
X108123558Y-81937846D01*
X108170990Y-81912493D01*
X108222470Y-81896877D01*
X108282140Y-81891000D01*
X109169860Y-81891000D01*
X109229530Y-81896877D01*
X109229530Y-81896877D01*
G37*
G36*
X114722947Y-76964722D02*
X114986833Y-77074027D01*
X115224324Y-77232713D01*
X115426287Y-77434676D01*
X115584973Y-77672167D01*
X115694278Y-77936053D01*
X115750000Y-78216186D01*
X115750000Y-78501814D01*
X115694278Y-78781947D01*
X115584973Y-79045833D01*
X115426287Y-79283324D01*
X115224324Y-79485287D01*
X114986833Y-79643973D01*
X114722947Y-79753278D01*
X114442814Y-79809000D01*
X114157186Y-79809000D01*
X113877053Y-79753278D01*
X113613167Y-79643973D01*
X113375676Y-79485287D01*
X113173713Y-79283324D01*
X113015027Y-79045833D01*
X112905722Y-78781947D01*
X112850000Y-78501814D01*
X112850000Y-78216186D01*
X112905722Y-77936053D01*
X113015027Y-77672167D01*
X113173713Y-77434676D01*
X113375676Y-77232713D01*
X113613167Y-77074027D01*
X113877053Y-76964722D01*
X114157186Y-76909000D01*
X114442814Y-76909000D01*
X114722947Y-76964722D01*
X114722947Y-76964722D01*
G37*
M02*
