G04 #@! TF.GenerationSoftware,KiCad,Pcbnew,(5.0.0)*
G04 #@! TF.CreationDate,2018-11-06T13:04:42+03:00*
G04 #@! TF.ProjectId,NeoP_6W,4E656F505F36572E6B696361645F7063,rev?*
G04 #@! TF.SameCoordinates,Original*
G04 #@! TF.FileFunction,Legend,Top*
G04 #@! TF.FilePolarity,Positive*
%FSLAX46Y46*%
G04 Gerber Fmt 4.6, Leading zero omitted, Abs format (unit mm)*
G04 Created by KiCad (PCBNEW (5.0.0)) date 11/06/18 13:04:42*
%MOMM*%
%LPD*%
G01*
G04 APERTURE LIST*
%ADD10C,0.300000*%
%ADD11C,0.150000*%
%ADD12C,0.120000*%
%ADD13C,0.100000*%
G04 APERTURE END LIST*
D10*
D11*
X108395047Y-98115380D02*
X108395047Y-97115380D01*
X108966476Y-98115380D01*
X108966476Y-97115380D01*
X109823619Y-98067761D02*
X109728380Y-98115380D01*
X109537904Y-98115380D01*
X109442666Y-98067761D01*
X109395047Y-97972523D01*
X109395047Y-97591571D01*
X109442666Y-97496333D01*
X109537904Y-97448714D01*
X109728380Y-97448714D01*
X109823619Y-97496333D01*
X109871238Y-97591571D01*
X109871238Y-97686809D01*
X109395047Y-97782047D01*
X110442666Y-98115380D02*
X110347428Y-98067761D01*
X110299809Y-98020142D01*
X110252190Y-97924904D01*
X110252190Y-97639190D01*
X110299809Y-97543952D01*
X110347428Y-97496333D01*
X110442666Y-97448714D01*
X110585523Y-97448714D01*
X110680761Y-97496333D01*
X110728380Y-97543952D01*
X110776000Y-97639190D01*
X110776000Y-97924904D01*
X110728380Y-98020142D01*
X110680761Y-98067761D01*
X110585523Y-98115380D01*
X110442666Y-98115380D01*
X111204571Y-97448714D02*
X111204571Y-98448714D01*
X111204571Y-97496333D02*
X111299809Y-97448714D01*
X111490285Y-97448714D01*
X111585523Y-97496333D01*
X111633142Y-97543952D01*
X111680761Y-97639190D01*
X111680761Y-97924904D01*
X111633142Y-98020142D01*
X111585523Y-98067761D01*
X111490285Y-98115380D01*
X111299809Y-98115380D01*
X111204571Y-98067761D01*
X112109333Y-98115380D02*
X112109333Y-97448714D01*
X112109333Y-97115380D02*
X112061714Y-97163000D01*
X112109333Y-97210619D01*
X112156952Y-97163000D01*
X112109333Y-97115380D01*
X112109333Y-97210619D01*
X112490285Y-98115380D02*
X113014095Y-97448714D01*
X112490285Y-97448714D02*
X113014095Y-98115380D01*
X113776000Y-98067761D02*
X113680761Y-98115380D01*
X113490285Y-98115380D01*
X113395047Y-98067761D01*
X113347428Y-97972523D01*
X113347428Y-97591571D01*
X113395047Y-97496333D01*
X113490285Y-97448714D01*
X113680761Y-97448714D01*
X113776000Y-97496333D01*
X113823619Y-97591571D01*
X113823619Y-97686809D01*
X113347428Y-97782047D01*
X114395047Y-98115380D02*
X114299809Y-98067761D01*
X114252190Y-97972523D01*
X114252190Y-97115380D01*
X115966476Y-97115380D02*
X115776000Y-97115380D01*
X115680761Y-97163000D01*
X115633142Y-97210619D01*
X115537904Y-97353476D01*
X115490285Y-97543952D01*
X115490285Y-97924904D01*
X115537904Y-98020142D01*
X115585523Y-98067761D01*
X115680761Y-98115380D01*
X115871238Y-98115380D01*
X115966476Y-98067761D01*
X116014095Y-98020142D01*
X116061714Y-97924904D01*
X116061714Y-97686809D01*
X116014095Y-97591571D01*
X115966476Y-97543952D01*
X115871238Y-97496333D01*
X115680761Y-97496333D01*
X115585523Y-97543952D01*
X115537904Y-97591571D01*
X115490285Y-97686809D01*
X116395047Y-97115380D02*
X116633142Y-98115380D01*
X116823619Y-97401095D01*
X117014095Y-98115380D01*
X117252190Y-97115380D01*
D10*
X117094142Y-99834000D02*
X116951285Y-99762571D01*
X116737000Y-99762571D01*
X116522714Y-99834000D01*
X116379857Y-99976857D01*
X116308428Y-100119714D01*
X116237000Y-100405428D01*
X116237000Y-100619714D01*
X116308428Y-100905428D01*
X116379857Y-101048285D01*
X116522714Y-101191142D01*
X116737000Y-101262571D01*
X116879857Y-101262571D01*
X117094142Y-101191142D01*
X117165571Y-101119714D01*
X117165571Y-100619714D01*
X116879857Y-100619714D01*
X117808428Y-101262571D02*
X117808428Y-99762571D01*
X118665571Y-101262571D01*
X118665571Y-99762571D01*
X119379857Y-101262571D02*
X119379857Y-99762571D01*
X119737000Y-99762571D01*
X119951285Y-99834000D01*
X120094142Y-99976857D01*
X120165571Y-100119714D01*
X120237000Y-100405428D01*
X120237000Y-100619714D01*
X120165571Y-100905428D01*
X120094142Y-101048285D01*
X119951285Y-101191142D01*
X119737000Y-101262571D01*
X119379857Y-101262571D01*
X116133714Y-78466142D02*
X117276571Y-78466142D01*
X116705142Y-79037571D02*
X116705142Y-77894714D01*
X117776571Y-77537571D02*
X118276571Y-79037571D01*
X118776571Y-77537571D01*
D11*
G04 #@! TO.C,J1*
X122936000Y-85725000D02*
X122936000Y-98425000D01*
X122936000Y-98425000D02*
X120396000Y-98425000D01*
X120396000Y-98425000D02*
X120396000Y-85725000D01*
X123216000Y-82905000D02*
X123216000Y-84455000D01*
X122936000Y-85725000D02*
X120396000Y-85725000D01*
X120116000Y-84455000D02*
X120116000Y-82905000D01*
X120116000Y-82905000D02*
X123216000Y-82905000D01*
D12*
G04 #@! TO.C,Q4*
X114552000Y-95195000D02*
X114552000Y-94265000D01*
X114552000Y-92035000D02*
X114552000Y-92965000D01*
X114552000Y-92035000D02*
X112392000Y-92035000D01*
X114552000Y-95195000D02*
X113092000Y-95195000D01*
G04 #@! TO.C,C1*
X115748000Y-83501000D02*
X119833000Y-83501000D01*
X119833000Y-83501000D02*
X119833000Y-81631000D01*
X119833000Y-81631000D02*
X115748000Y-81631000D01*
G04 #@! TO.C,Q1*
X109603000Y-92035000D02*
X109603000Y-92965000D01*
X109603000Y-95195000D02*
X109603000Y-94265000D01*
X109603000Y-95195000D02*
X111763000Y-95195000D01*
X109603000Y-92035000D02*
X111063000Y-92035000D01*
G04 #@! TO.C,Q2*
X109603000Y-87971000D02*
X111063000Y-87971000D01*
X109603000Y-91131000D02*
X111763000Y-91131000D01*
X109603000Y-91131000D02*
X109603000Y-90201000D01*
X109603000Y-87971000D02*
X109603000Y-88901000D01*
G04 #@! TO.C,Q3*
X109603000Y-83907000D02*
X111063000Y-83907000D01*
X109603000Y-87067000D02*
X111763000Y-87067000D01*
X109603000Y-87067000D02*
X109603000Y-86137000D01*
X109603000Y-83907000D02*
X109603000Y-84837000D01*
G04 #@! TO.C,Q5*
X114552000Y-91131000D02*
X114552000Y-90201000D01*
X114552000Y-87971000D02*
X114552000Y-88901000D01*
X114552000Y-87971000D02*
X112392000Y-87971000D01*
X114552000Y-91131000D02*
X113092000Y-91131000D01*
G04 #@! TO.C,Q6*
X114552000Y-87067000D02*
X114552000Y-86137000D01*
X114552000Y-83907000D02*
X114552000Y-84837000D01*
X114552000Y-83907000D02*
X112392000Y-83907000D01*
X114552000Y-87067000D02*
X113092000Y-87067000D01*
G04 #@! TO.C,R1*
X117049733Y-94121000D02*
X117392267Y-94121000D01*
X117049733Y-95141000D02*
X117392267Y-95141000D01*
G04 #@! TO.C,R2*
X117049733Y-91077000D02*
X117392267Y-91077000D01*
X117049733Y-90057000D02*
X117392267Y-90057000D01*
G04 #@! TO.C,R3*
X117049733Y-85993000D02*
X117392267Y-85993000D01*
X117049733Y-87013000D02*
X117392267Y-87013000D01*
G04 #@! TO.C,R4*
X117736252Y-93563000D02*
X117213748Y-93563000D01*
X117736252Y-92143000D02*
X117213748Y-92143000D01*
G04 #@! TO.C,R5*
X117736252Y-88079000D02*
X117213748Y-88079000D01*
X117736252Y-89499000D02*
X117213748Y-89499000D01*
G04 #@! TO.C,R6*
X117736252Y-85435000D02*
X117213748Y-85435000D01*
X117736252Y-84015000D02*
X117213748Y-84015000D01*
G04 #@! TO.C,R7*
X109772267Y-82056000D02*
X109429733Y-82056000D01*
X109772267Y-83076000D02*
X109429733Y-83076000D01*
G04 #@! TO.C,TH1*
X112858733Y-82056000D02*
X113201267Y-82056000D01*
X112858733Y-83076000D02*
X113201267Y-83076000D01*
G04 #@! TO.C,Q4*
D13*
X115004857Y-95975571D02*
X114947714Y-95947000D01*
X114890571Y-95889857D01*
X114804857Y-95804142D01*
X114747714Y-95775571D01*
X114690571Y-95775571D01*
X114719142Y-95918428D02*
X114662000Y-95889857D01*
X114604857Y-95832714D01*
X114576285Y-95718428D01*
X114576285Y-95518428D01*
X114604857Y-95404142D01*
X114662000Y-95347000D01*
X114719142Y-95318428D01*
X114833428Y-95318428D01*
X114890571Y-95347000D01*
X114947714Y-95404142D01*
X114976285Y-95518428D01*
X114976285Y-95718428D01*
X114947714Y-95832714D01*
X114890571Y-95889857D01*
X114833428Y-95918428D01*
X114719142Y-95918428D01*
X115490571Y-95518428D02*
X115490571Y-95918428D01*
X115347714Y-95289857D02*
X115204857Y-95718428D01*
X115576285Y-95718428D01*
G04 #@! TO.C,C1*
X117248000Y-81256285D02*
X117219428Y-81284857D01*
X117133714Y-81313428D01*
X117076571Y-81313428D01*
X116990857Y-81284857D01*
X116933714Y-81227714D01*
X116905142Y-81170571D01*
X116876571Y-81056285D01*
X116876571Y-80970571D01*
X116905142Y-80856285D01*
X116933714Y-80799142D01*
X116990857Y-80742000D01*
X117076571Y-80713428D01*
X117133714Y-80713428D01*
X117219428Y-80742000D01*
X117248000Y-80770571D01*
X117819428Y-81313428D02*
X117476571Y-81313428D01*
X117648000Y-81313428D02*
X117648000Y-80713428D01*
X117590857Y-80799142D01*
X117533714Y-80856285D01*
X117476571Y-80884857D01*
G04 #@! TO.C,Q1*
X109035857Y-95975571D02*
X108978714Y-95947000D01*
X108921571Y-95889857D01*
X108835857Y-95804142D01*
X108778714Y-95775571D01*
X108721571Y-95775571D01*
X108750142Y-95918428D02*
X108693000Y-95889857D01*
X108635857Y-95832714D01*
X108607285Y-95718428D01*
X108607285Y-95518428D01*
X108635857Y-95404142D01*
X108693000Y-95347000D01*
X108750142Y-95318428D01*
X108864428Y-95318428D01*
X108921571Y-95347000D01*
X108978714Y-95404142D01*
X109007285Y-95518428D01*
X109007285Y-95718428D01*
X108978714Y-95832714D01*
X108921571Y-95889857D01*
X108864428Y-95918428D01*
X108750142Y-95918428D01*
X109578714Y-95918428D02*
X109235857Y-95918428D01*
X109407285Y-95918428D02*
X109407285Y-95318428D01*
X109350142Y-95404142D01*
X109293000Y-95461285D01*
X109235857Y-95489857D01*
G04 #@! TO.C,Q2*
X109035857Y-91911571D02*
X108978714Y-91883000D01*
X108921571Y-91825857D01*
X108835857Y-91740142D01*
X108778714Y-91711571D01*
X108721571Y-91711571D01*
X108750142Y-91854428D02*
X108693000Y-91825857D01*
X108635857Y-91768714D01*
X108607285Y-91654428D01*
X108607285Y-91454428D01*
X108635857Y-91340142D01*
X108693000Y-91283000D01*
X108750142Y-91254428D01*
X108864428Y-91254428D01*
X108921571Y-91283000D01*
X108978714Y-91340142D01*
X109007285Y-91454428D01*
X109007285Y-91654428D01*
X108978714Y-91768714D01*
X108921571Y-91825857D01*
X108864428Y-91854428D01*
X108750142Y-91854428D01*
X109235857Y-91311571D02*
X109264428Y-91283000D01*
X109321571Y-91254428D01*
X109464428Y-91254428D01*
X109521571Y-91283000D01*
X109550142Y-91311571D01*
X109578714Y-91368714D01*
X109578714Y-91425857D01*
X109550142Y-91511571D01*
X109207285Y-91854428D01*
X109578714Y-91854428D01*
G04 #@! TO.C,Q3*
X109035857Y-87847571D02*
X108978714Y-87819000D01*
X108921571Y-87761857D01*
X108835857Y-87676142D01*
X108778714Y-87647571D01*
X108721571Y-87647571D01*
X108750142Y-87790428D02*
X108693000Y-87761857D01*
X108635857Y-87704714D01*
X108607285Y-87590428D01*
X108607285Y-87390428D01*
X108635857Y-87276142D01*
X108693000Y-87219000D01*
X108750142Y-87190428D01*
X108864428Y-87190428D01*
X108921571Y-87219000D01*
X108978714Y-87276142D01*
X109007285Y-87390428D01*
X109007285Y-87590428D01*
X108978714Y-87704714D01*
X108921571Y-87761857D01*
X108864428Y-87790428D01*
X108750142Y-87790428D01*
X109207285Y-87190428D02*
X109578714Y-87190428D01*
X109378714Y-87419000D01*
X109464428Y-87419000D01*
X109521571Y-87447571D01*
X109550142Y-87476142D01*
X109578714Y-87533285D01*
X109578714Y-87676142D01*
X109550142Y-87733285D01*
X109521571Y-87761857D01*
X109464428Y-87790428D01*
X109293000Y-87790428D01*
X109235857Y-87761857D01*
X109207285Y-87733285D01*
G04 #@! TO.C,Q5*
X115004857Y-91911571D02*
X114947714Y-91883000D01*
X114890571Y-91825857D01*
X114804857Y-91740142D01*
X114747714Y-91711571D01*
X114690571Y-91711571D01*
X114719142Y-91854428D02*
X114662000Y-91825857D01*
X114604857Y-91768714D01*
X114576285Y-91654428D01*
X114576285Y-91454428D01*
X114604857Y-91340142D01*
X114662000Y-91283000D01*
X114719142Y-91254428D01*
X114833428Y-91254428D01*
X114890571Y-91283000D01*
X114947714Y-91340142D01*
X114976285Y-91454428D01*
X114976285Y-91654428D01*
X114947714Y-91768714D01*
X114890571Y-91825857D01*
X114833428Y-91854428D01*
X114719142Y-91854428D01*
X115519142Y-91254428D02*
X115233428Y-91254428D01*
X115204857Y-91540142D01*
X115233428Y-91511571D01*
X115290571Y-91483000D01*
X115433428Y-91483000D01*
X115490571Y-91511571D01*
X115519142Y-91540142D01*
X115547714Y-91597285D01*
X115547714Y-91740142D01*
X115519142Y-91797285D01*
X115490571Y-91825857D01*
X115433428Y-91854428D01*
X115290571Y-91854428D01*
X115233428Y-91825857D01*
X115204857Y-91797285D01*
G04 #@! TO.C,Q6*
X115004857Y-87847571D02*
X114947714Y-87819000D01*
X114890571Y-87761857D01*
X114804857Y-87676142D01*
X114747714Y-87647571D01*
X114690571Y-87647571D01*
X114719142Y-87790428D02*
X114662000Y-87761857D01*
X114604857Y-87704714D01*
X114576285Y-87590428D01*
X114576285Y-87390428D01*
X114604857Y-87276142D01*
X114662000Y-87219000D01*
X114719142Y-87190428D01*
X114833428Y-87190428D01*
X114890571Y-87219000D01*
X114947714Y-87276142D01*
X114976285Y-87390428D01*
X114976285Y-87590428D01*
X114947714Y-87704714D01*
X114890571Y-87761857D01*
X114833428Y-87790428D01*
X114719142Y-87790428D01*
X115490571Y-87190428D02*
X115376285Y-87190428D01*
X115319142Y-87219000D01*
X115290571Y-87247571D01*
X115233428Y-87333285D01*
X115204857Y-87447571D01*
X115204857Y-87676142D01*
X115233428Y-87733285D01*
X115262000Y-87761857D01*
X115319142Y-87790428D01*
X115433428Y-87790428D01*
X115490571Y-87761857D01*
X115519142Y-87733285D01*
X115547714Y-87676142D01*
X115547714Y-87533285D01*
X115519142Y-87476142D01*
X115490571Y-87447571D01*
X115433428Y-87419000D01*
X115319142Y-87419000D01*
X115262000Y-87447571D01*
X115233428Y-87476142D01*
X115204857Y-87533285D01*
G04 #@! TO.C,R1*
X119407000Y-94902428D02*
X119207000Y-94616714D01*
X119064142Y-94902428D02*
X119064142Y-94302428D01*
X119292714Y-94302428D01*
X119349857Y-94331000D01*
X119378428Y-94359571D01*
X119407000Y-94416714D01*
X119407000Y-94502428D01*
X119378428Y-94559571D01*
X119349857Y-94588142D01*
X119292714Y-94616714D01*
X119064142Y-94616714D01*
X119978428Y-94902428D02*
X119635571Y-94902428D01*
X119807000Y-94902428D02*
X119807000Y-94302428D01*
X119749857Y-94388142D01*
X119692714Y-94445285D01*
X119635571Y-94473857D01*
G04 #@! TO.C,R2*
X119407000Y-90838428D02*
X119207000Y-90552714D01*
X119064142Y-90838428D02*
X119064142Y-90238428D01*
X119292714Y-90238428D01*
X119349857Y-90267000D01*
X119378428Y-90295571D01*
X119407000Y-90352714D01*
X119407000Y-90438428D01*
X119378428Y-90495571D01*
X119349857Y-90524142D01*
X119292714Y-90552714D01*
X119064142Y-90552714D01*
X119635571Y-90295571D02*
X119664142Y-90267000D01*
X119721285Y-90238428D01*
X119864142Y-90238428D01*
X119921285Y-90267000D01*
X119949857Y-90295571D01*
X119978428Y-90352714D01*
X119978428Y-90409857D01*
X119949857Y-90495571D01*
X119607000Y-90838428D01*
X119978428Y-90838428D01*
G04 #@! TO.C,R3*
X119407000Y-86774428D02*
X119207000Y-86488714D01*
X119064142Y-86774428D02*
X119064142Y-86174428D01*
X119292714Y-86174428D01*
X119349857Y-86203000D01*
X119378428Y-86231571D01*
X119407000Y-86288714D01*
X119407000Y-86374428D01*
X119378428Y-86431571D01*
X119349857Y-86460142D01*
X119292714Y-86488714D01*
X119064142Y-86488714D01*
X119607000Y-86174428D02*
X119978428Y-86174428D01*
X119778428Y-86403000D01*
X119864142Y-86403000D01*
X119921285Y-86431571D01*
X119949857Y-86460142D01*
X119978428Y-86517285D01*
X119978428Y-86660142D01*
X119949857Y-86717285D01*
X119921285Y-86745857D01*
X119864142Y-86774428D01*
X119692714Y-86774428D01*
X119635571Y-86745857D01*
X119607000Y-86717285D01*
G04 #@! TO.C,R4*
X119553071Y-92737000D02*
X119838785Y-92537000D01*
X119553071Y-92394142D02*
X120153071Y-92394142D01*
X120153071Y-92622714D01*
X120124500Y-92679857D01*
X120095928Y-92708428D01*
X120038785Y-92737000D01*
X119953071Y-92737000D01*
X119895928Y-92708428D01*
X119867357Y-92679857D01*
X119838785Y-92622714D01*
X119838785Y-92394142D01*
X119953071Y-93251285D02*
X119553071Y-93251285D01*
X120181642Y-93108428D02*
X119753071Y-92965571D01*
X119753071Y-93337000D01*
G04 #@! TO.C,R5*
X119553071Y-88609500D02*
X119838785Y-88409500D01*
X119553071Y-88266642D02*
X120153071Y-88266642D01*
X120153071Y-88495214D01*
X120124500Y-88552357D01*
X120095928Y-88580928D01*
X120038785Y-88609500D01*
X119953071Y-88609500D01*
X119895928Y-88580928D01*
X119867357Y-88552357D01*
X119838785Y-88495214D01*
X119838785Y-88266642D01*
X120153071Y-89152357D02*
X120153071Y-88866642D01*
X119867357Y-88838071D01*
X119895928Y-88866642D01*
X119924500Y-88923785D01*
X119924500Y-89066642D01*
X119895928Y-89123785D01*
X119867357Y-89152357D01*
X119810214Y-89180928D01*
X119667357Y-89180928D01*
X119610214Y-89152357D01*
X119581642Y-89123785D01*
X119553071Y-89066642D01*
X119553071Y-88923785D01*
X119581642Y-88866642D01*
X119610214Y-88838071D01*
G04 #@! TO.C,R6*
X119426071Y-84672500D02*
X119711785Y-84472500D01*
X119426071Y-84329642D02*
X120026071Y-84329642D01*
X120026071Y-84558214D01*
X119997500Y-84615357D01*
X119968928Y-84643928D01*
X119911785Y-84672500D01*
X119826071Y-84672500D01*
X119768928Y-84643928D01*
X119740357Y-84615357D01*
X119711785Y-84558214D01*
X119711785Y-84329642D01*
X120026071Y-85186785D02*
X120026071Y-85072500D01*
X119997500Y-85015357D01*
X119968928Y-84986785D01*
X119883214Y-84929642D01*
X119768928Y-84901071D01*
X119540357Y-84901071D01*
X119483214Y-84929642D01*
X119454642Y-84958214D01*
X119426071Y-85015357D01*
X119426071Y-85129642D01*
X119454642Y-85186785D01*
X119483214Y-85215357D01*
X119540357Y-85243928D01*
X119683214Y-85243928D01*
X119740357Y-85215357D01*
X119768928Y-85186785D01*
X119797500Y-85129642D01*
X119797500Y-85015357D01*
X119768928Y-84958214D01*
X119740357Y-84929642D01*
X119683214Y-84901071D01*
G04 #@! TO.C,R7*
X109501000Y-81440428D02*
X109301000Y-81154714D01*
X109158142Y-81440428D02*
X109158142Y-80840428D01*
X109386714Y-80840428D01*
X109443857Y-80869000D01*
X109472428Y-80897571D01*
X109501000Y-80954714D01*
X109501000Y-81040428D01*
X109472428Y-81097571D01*
X109443857Y-81126142D01*
X109386714Y-81154714D01*
X109158142Y-81154714D01*
X109701000Y-80840428D02*
X110101000Y-80840428D01*
X109843857Y-81440428D01*
G04 #@! TO.C,TH1*
X112258571Y-80840428D02*
X112601428Y-80840428D01*
X112430000Y-81440428D02*
X112430000Y-80840428D01*
X112801428Y-81440428D02*
X112801428Y-80840428D01*
X112801428Y-81126142D02*
X113144285Y-81126142D01*
X113144285Y-81440428D02*
X113144285Y-80840428D01*
X113744285Y-81440428D02*
X113401428Y-81440428D01*
X113572857Y-81440428D02*
X113572857Y-80840428D01*
X113515714Y-80926142D01*
X113458571Y-80983285D01*
X113401428Y-81011857D01*
G04 #@! TD*
M02*
